<svg xmlns="http://www.w3.org/2000/svg" width="184.741" height="81.164" viewBox="0 0 184.741 81.164"><path fill="#black" d="M5.915 11.135c-.327.093-.527.34-.61.666-.22-.014-.458.007-.695.165-.24.16-.398.413-.456.732l-.02.218c0 .344.15.772.728 1.063l-.026.13c0 .187.058.46.334.71.135.12.282.192.438.245l-.077.306.066.367c.125.37.432.76 1.136.81.046.145.116.304.287.46.228.208.59.363 1.086.215-.048.133-.093.267-.093.402 0 .24.074.467.22.68.432.63 1.18.325 1.65.103.225.27.548.403.95.32.645-.13.94-.53 1.117-.915l.473-.077.08-.05c.253-.157.47-.507.666-.984.463.41.842.988.89 1.108.077.197.273.525.79 1.352 0-.002.38.625.483.798-.16.832-.543 1.447-1.094 1.727l-.303.152c-.75.377-1.584.81-2.11 1.202l-.022-.002c-.387 0-.622.086-.79.164-.22-.088-.512-.183-.82-.185-1.032-.007-1.486.566-1.665.908-.343.654-.223 1.44.064 1.85.367.52.927.796 1.617.796.27 0 .512-.077.743-.182.21.083.453.164.73.164.287 0 .544-.072.788-.17.222.1.458.19.706.19.25 0 .475-.076.692-.178.194.08.415.158.675.158.367 0 .598-.08.764-.155.213.093.438.175.678.175.25 0 .474-.075.69-.177.194.08.416.158.675.158.364 0 .593-.08.758-.152.21.092.436.172.673.172.253 0 .476-.075.694-.177.193.08.415.158.676.158.363 0 .594-.08.76-.153.21.092.435.173.674.173.252 0 .474-.075.692-.177.194.08.416.158.676.158.385 0 .623-.09.793-.17.223.09.518.187.833.19.782.005 1.38-.33 1.688-.942.333-.665.197-1.44-.1-1.834-.398-.523-.922-.778-1.603-.778-.267 0-.503.074-.732.178l-.257-.077c-.305-.45-.774-.67-1.836-1.115l-.16-.067c-1.106-.465-1.33-.856-1.542-1.234l-.032-.057c-.064-.11-.23-.752-.23-1.545 0-.545.082-1.32.468-1.91.22-.336.497-.596.805-.81.093.313.198.567.325.7l.024.025.06.05.478.246-.054-.12c.207.49.498 1 1.08 1.077.21.028.394-.032.57-.112.203.17.46.342.816.326.326-.014.516-.142.66-.27.652.113 1.01-.167 1.19-.437l.185-.542v-.035c0-.222-.08-.378-.172-.508l.073-.02c.174-.1.274-.218.35-.35.51-.037.757-.325.866-.58.007-.02.03-.105.044-.162l.044-.04c.264.092.573.168.888.022.228-.105.374-.3.472-.545.234.013.506-.01.77-.195.254-.18.416-.458.468-.807l.015-.193c0-.34-.16-.9-1.04-1.184-.03-.235-.12-.456-.307-.65-.427-.445-.95-.357-1.322-.21.124-.086.217-.194.28-.32.493.103 1.324.225 1.69-.495.002 0 .092-.354.092-.356 0-.038-.042-.207-.075-.34.457-.35.574-.75.574-1.036l-.127-.565c-.23-.512-.625-.708-1.176-.64-.027-.115-.066-.23-.15-.33l-.052-.036.094-.352-.093-.465c-.125-.315-.336-.528-.604-.635-.228-.09-.49-.08-.776-.02.238-.22.402-.447.45-.678l.018-.18v-.005c0-.257-.085-.485-.246-.68-.332-.402-.8-.52-1.376-.385-.112-.13-.264-.264-.552-.334-.498-.12-.9.177-1.166.402l-.246-.16h-.06l-.137.02c-.02-.29-.122-.54-.34-.76-.284-.29-.607-.434-.96-.428-.127.002-.253.034-.378.08.14-.21.236-.41.236-.608l-.104-.427c-.177-.333-.37-.467-.544-.555v-.01c0-.902-.596-1.145-.85-1.207-.46-.113-.883.062-1.267.473-.087-.038-.176-.072-.275-.086-.21-.224-.453-.365-.732-.4-.774-.102-1.08.602-1.228 1.032-.155-.008-.335.01-.534.127l-.24.243c-.062-.03-.073-.038-.125-.064-.118-.767-.513-1.022-.75-1.097-.21-.065-.402-.06-.585-.016-.627-.66-1.177-.645-1.532-.48-.373.17-.587.52-.587.958l.107.533c-.113.067-.203.154-.273.26-.38-.1-.768-.05-1.106.188-.316.222-.49.56-.49.953 0 .298.096.55.198.775-.19.18-.318.373-.343.6l-.01.14c0 .006.037.146.072.28-.294.04-.563.16-.787.4-.156.167-.23.357-.265.56-.183-.5-.49-.772-.93-.78-.232-.005-.424.1-.597.27-.38-.272-.733-.25-.97-.15-.26.11-.7.405-.7 1.148 0 .017.025.22.042.353-.154.096-.298.228-.394.437-.003.007-.01.016-.014.023-.006.015-.017.02-.023.036l.018-.013c-.026.064-.046.15-.075.313v.01c0 .216.084.406.206.587l-.016.003c-.13.048-.412.208-.547.59-.392.04-.717.24-.903.63-.014.04-.14.553-.14.553l-.01.048.12.5c.125.245.336.42.61.575-.006.015.053.047.07.13.017.083-.03.125-.03.125zm.475-.434l-.178-.082c-.297-.136-.484-.286-.574-.456l-.083-.36c.02-.078.12-.515.12-.515l-.02.087c.143-.297.373-.443.685-.433l.166.005.035-.163c.065-.292.262-.394.344-.425l.646-.11-.277-.278c-.202-.186-.3-.366-.3-.55.004-.004.044-.23.044-.23.054-.145.182-.24.354-.332l.123-.064L7.4 6.21c.002-.367.156-.628.46-.756.238-.1.46-.044.695.176l.165.154.133-.182c.124-.168.25-.24.407-.238.202.004.49.086.642.744l.056.157s.204-.083.296-.074c.09.01.275.16.275.16l.108-.14-.067-.307-.005-.016c.002-.145.064-.292.192-.43.21-.226.44-.323.727-.305l.28.017-.126-.296-.058-.357.007-.13c.017-.14.11-.28.298-.42l.133-.1-.074-.15c-.104-.206-.21-.454-.21-.727 0-.266.107-.477.32-.625.192-.135.503-.266.89-.113l.178.07.078-.175c.06-.133.157-.225.296-.283l.153-.064-.042-.186-.116-.56c0-.197.062-.46.355-.596.366-.168.744-.02 1.156.46l.092.106.13-.05c.136-.053.28-.053.452 0 .27.084.445.39.497.863l.013.114.143.06.123.056.19.178.092.03.155-.194.225-.226c.153-.09.284-.09.433-.062l.172.03.054-.166c.19-.588.406-.968.85-.91.202.025.375.125.53.305l.055.065.084.005c.127.007.238.04.332.102l.15.096.112-.137c.312-.378.618-.514.965-.43.25.062.548.25.548.806l-.02.267.14.053c.153.06.313.148.454.406l.08.33c-.005.137-.13.358-.38.608l-.074.073.028.118.096.548.264-.212c.213-.17.407-.252.61-.256.236-.003.46.1.666.308.164.167.24.344.24.556l-.066.3.308.038.2-.04c-.02-.02.283.18.283.18l.126.082.114-.1c.273-.24.594-.49.93-.41.23.057.334.166.413.274l.083.117.136-.04c.486-.145.83-.07 1.082.235.102.124.155.266.155.41-.002.002-.017.162-.017.162-.032.136-.172.322-.413.516l-.095.077.128.618.213-.072c.298-.1.54-.108.74-.028.167.066.3.2.372.378l.077.39c-.004-.04-.102.306-.102.306l-.04.142.11.116.123.08c.018.035.04.155.056.28l.03.22.214-.05c.483-.115.748-.013.913.35l.107.484c-.005.268-.17.527-.51.746l-.123.08.055.18.077.278c-.006.005-.067.26-.067.26-.224.427-.822.338-1.365.218l-.183-.04-.073.205c-.05.17-.173.284-.396.368l-.18.067.076.213s.048.143.05.153c-.004.008-.02.113-.02.113l-.062.412.36-.21c.57-.33.95-.347 1.228-.056.15.156.223.322.223.506v.154l.146.048c.566.15.866.438.866.835l-.014.177c-.033.208-.137.394-.3.51-.205.143-.436.138-.636.114l-.176-.02-.042.172c-.054.224-.155.36-.325.438-.224.104-.48.027-.702-.062l-.115-.045-.12.11-.17.15-.03.073-.05.187c-.094.216-.29.328-.604.323l-.14-.002-.05.13c-.04.104-.105.18-.2.24-.023 0-.237.06-.237.06l-.112.03-.07.274.07.113c.103.102.194.223.2.4-.023.074-.137.42-.137.42-.09.12-.302.332-.845.207l-.11-.025-.077.08c-.103.106-.233.207-.477.217-.255.01-.448-.132-.618-.29l-.116-.104-.13.086c-.133.087-.28.118-.455.096-.38-.05-.592-.432-.764-.836l-.027-.066-.102-.013-.476-.246c-.03-.05-.167-.238-.29-.79l-.058-.263-.235.132c-.45.255-.85.632-1.15 1.09-.437.674-.53 1.53-.53 2.13 0 .818.163 1.538.28 1.744l.032.055c.225.396.503.888 1.736 1.407l.16.067c1.083.453 1.47.63 1.706 1.024l.04.066.508.152.073-.038c.2-.107.416-.158.656-.158.556 0 .964.197 1.284.62.223.293.31.918.062 1.413-.234.468-.706.723-1.327.72-.22-.002-.49-.07-.76-.188l-.09-.04-.084.045c-.14.075-.345.16-.695.16-.208 0-.408-.075-.577-.145l-.09-.038-.084.047c-.19.106-.392.157-.616.157-.192 0-.397-.08-.59-.17l-.086-.04-.084.044c-.127.063-.335.147-.673.147-.21 0-.408-.076-.577-.146l-.09-.037-.084.047c-.19.105-.393.156-.617.156-.19 0-.396-.08-.588-.168l-.086-.04-.086.043c-.126.063-.333.146-.67.146-.19 0-.36-.056-.577-.146l-.09-.04-.083.05c-.19.104-.392.155-.615.155-.193 0-.4-.082-.593-.17l-.088-.04-.086.04c-.126.064-.334.15-.676.15-.21 0-.408-.077-.577-.147l-.088-.038-.085.047c-.19.105-.392.156-.616.156-.19 0-.397-.085-.592-.177l-.087-.04-.084.04c-.22.106-.457.157-.727.157-.232 0-.443-.073-.636-.152l-.087-.035-.083.045c-.202.11-.42.163-.667.163-.555 0-1-.217-1.29-.627-.217-.308-.293-.944-.037-1.433.136-.262.488-.698 1.308-.693.216 0 .48.065.746.18l.088.04.084-.044c.138-.073.34-.156.684-.156l.15.01.06-.046c.534-.414 1.562-.93 2.113-1.207l.304-.152c.68-.348 1.15-1.087 1.324-2.083l.014-.073-.566-.938c-.473-.755-.694-1.12-.76-1.287-.09-.23-.627-1.025-1.215-1.45l-.218-.16-.088.255c-.238.687-.468.944-.62 1.038l-.323.056-.19-.21-.12.3c-.145.372-.356.732-.906.844-.208.042-.49.033-.65-.26l-.09-.168-.186.09c-.523.25-1.013.446-1.263.082-.1-.146-.15-.298-.15-.455 0-.247.118-.49.364-.75l-.262-.3c-.517.374-.92.418-1.228.135-.14-.127-.184-.26-.21-.386l-.034-.16h-.164c-.486.005-.772-.163-.897-.527l-.044-.255.063-.265c.024-.02.398-.306.398-.306l-.48-.078c-.183-.015-.337-.083-.484-.214-.134-.12-.202-.26-.202-.41l.073-.325-.15-.096c-.42-.165-.626-.413-.626-.758l.018-.198c.034-.173.132-.336.28-.435.183-.122.383-.115.573-.09l.215.03.012-.216c.01-.2.094-.456.422-.527l.37-.038.113-.023-.125-.117s-.137-.29-.13-.353c-.002-.056.102-.256.102-.256z"/><path fill="#black" d="M15.14 25.282c.193.27.516.437.844.437.372 0 .504-.153.51-.16.066-.08.19-.094.27-.03.01.008.22.17.585.17.18 0 .303-.03.395-.062-.043-.046-.09-.087-.127-.14l-.818-1.192c-.19-.27-.513-.436-.84-.436-.372 0-.504.15-.51.16-.067.077-.19.093-.27.03-.01-.008-.22-.17-.587-.17-.18 0-.302.03-.395.062.04.043.085.083.12.13l.823 1.2zM9.29 25.283c-.122-.173-.183-.625-.006-.963.158-.3.462-.453.904-.45.343.002.814.167 1.008.436l.817 1.192c.038.053.1.077.143.124-.104.04-.253.076-.472.076-.404 0-.644-.17-.646-.173-.08-.058-.196-.044-.262.03-.006.006-.154.163-.565.163-.418 0-.71-.138-.92-.435zM13.825 7.547c.164-.123.38-.27.644-.418.31-.178.647-.306.888-.382-.335-.637-.767-.666-.984-.677l-.215-.053c-.03-.007-.035-.027-.058-.047-.065-.056-.215-.186-.293-.155-.027.042 0 .214.012.28l.015.22-.06.14c-.093.164-.27.49.048 1.092zM18.03 5.947l.005-.006c-.012-.01-.026-.02-.035-.032l.03.04zM9.94 9.98l-.065.17-.328.147c-.043.033-.1.05-.158.036h-.003c-.18.042-.315.105-.354.266-.052.213.11.336.308.463 0 0 .202.216.205.228.008.037.017.086.024.14.205-.048.455-.045.75.07.053-.032.107-.064.17-.077.313-.068.62.12.816.255.07-.146.188-.355.42-.3.33.075.538.312.676.604.058-.077.11-.163.192-.195 0-.025-.006-.05-.006-.075 0-.123.025-.243.08-.312 0 0 .117-.11.136-.13l-.006-.006c-.09-.088-.212-.217-.3-.374-.36.162-1.013.282-1.447.094-.264-.114-.416-.325-.457-.606-.25-.153-.426-.363-.544-.597-.05.02-.075.07-.11.2zM8.95 12.134c-.128-.002-.24.005-.306.11-.063.1-.027.192.028.304.005.01.03.062.032.072l.06.208.168.45c.134.25.425.45.587.536l.712-1.19c-.12-.126-.245-.302-.245-.53 0-.085.027-.18.07-.278-.422-.114-.685.096-.834.216 0 0-.125.084-.127.084l-.145.018zM20.862 10.624l.032-.03c.253-.24.58-.548.882-.583-.14-.23-.206-.485-.218-.73-.12.255-.434.452-.68.59.056.048.116.09.14.194.008.04.012.08.012.122 0 .13-.044.263-.133.396-.01.014-.025.028-.035.042zM23.946 11.55c0-.007-.01-.02-.026-.06l.023.062h.003zM22.346 11.357c.045.112-.582.393-1.05.547-.214.07-.45.178-.64.274-.005.003-.007.008-.01.01-.16.103-.316.274-.468.485.23.13.903.28 1.042.255l.022-.1c.016-.098.04-.245.183-.31l.346.024c.264.072.66.18.92-.01l-.056-.075-.115-.28c-.025-.057-.06-.06-.028-.112.033-.052.048-.023.11-.027l.356-.025c.16.024.292.034.4.027.03-.014.062-.018.096-.014.09-.02.154-.06.178-.136l-.032-.157-.066-.248c0-.165.144-.237.282-.307.284-.145.407-.24.3-.5-.045-.11-.412-.03-.568 0l-.39.008-.158-.204c-.028-.07-.043-.107-.134-.143-.07-.03-.28.11-.368.17-.155.102-.278.183-.415.124l-.184-.184-.052-.06c-.054-.027-.218.035-.688.483l-.353.253c-.033.004-.166-.014-.238-.164-.204.033-.458.57-.598 1.02.254-.103.823-.322 1.202-.446.478-.156 1.125-.29 1.172-.18zM10.588 8.58l-.158.032-.176.01s-.08.01-.088-.015l.02.062.05.242v.02c0 .398.16.898.602 1.142.006.002.01.006.015.008.012 0 .08-.01.22-.152.357-.36.686-1.066.717-1.305-.55-.177-.974-.098-1.202-.044zM27.487 8.337c-.043.028-.095.064-.143.1.16.086.343.246.343.577 0 .022 0 .047-.003.07-.04.543-.87.572-1.4.57.062.106.117.226.117.36 0 .058-.01.117-.035.176-.26.62-1.322.587-1.833.562.005.034.01.067.01.1 0 .072-.015.137-.037.197.133.022.25.067.314.127.022.02.035.047.048.072.53-.05.95-.01 1.248.118.078-.11.218-.1.37-.082.326.037.537.03.582-.12l.003-.103c-.007-.095-.02-.252.143-.38.132-.106.33-.063.628.003.317.07.796.175.895-.02.02-.036-.054-.147-.097-.213-.078-.12-.176-.27-.108-.432l.222-.18c.404-.206.59-.39.417-.77-.083-.18-.24-.17-.58-.07-.2.058-.47.137-.57-.107L28 8.58c.014-.116.02-.195-.02-.24-.022-.026-.106-.084-.344-.106-.052.037-.102.072-.15.103zM21.402 8.75l.173.18c.027-.174.08-.332.153-.455.275-.458.808-.614.984-.566.328-.188.68-.264 1.05-.22.073-.145.265-.482.542-.642.004-.06-.012-.175-.18-.307-.188-.147-.405-.04-.693.126-.17.1-.32.187-.47.145 0 0-.17-.14-.196-.187-.042-.08-.156-.296-.26-.376-.085.048-.167.097-.265.144.045.077.09.17.09.3 0 .055-.01.115-.03.18-.076.235-.297.41-.453.51.037.1.062.202.062.302 0 .3-.185.588-.508.868zM19.89 6.75c.073-.52-.09-.875-.168-1.028l-.033-.103c-.028-.106-.048-.168-.15-.2-.088-.03-.21.05-.293.103 0 0-.116.064-.126.068-.21.08-.677.298-.862.756.625.04 1.458.306 1.607.382.01.006.016.014.025.02zM24.44 8.04l-.13.042-.262.05c-.03.007-.03-.006-.06-.014-.154-.044-.612-.17-1.128.145-.03.79.468 1.123 1.043 1.344.377-.313.44-.69.44-.945 0-.073-.004-.137-.008-.186l-.003-.11.05-.173s.04-.15.06-.153zM20.29 13.378c.107-.05.155-.078.166-.2-.182-.05-.35-.114-.477-.187-.124.22-.242.458-.344.732-.147.396-.17.886-.19 1.32-.003.06-.008.108-.01.166.142-.178.31-.377.483-.57-.164-.26-.228-.694.022-1.007l.347-.252z"/><path fill="#black" d="M23.18 12.78c.117-.084.2-.15.205-.228v-.03c0-.043-.006-.073-.015-.094-.124.005-.246-.006-.35-.02.014.04.055.084.055.12 0 .092-.042.176-.125.25-.417.374-.978.222-1.278.14l-.05-.014c-.017.108-.048.277-.218.362-.09.045-.316.04-.572 0-.043.276-.202.38-.38.462l-.208.144c-.117.146-.09.335-.04.47.187-.183.372-.342.543-.448.007-.006.313-.195.572-.32.077-.038.595-.243.668-.114.073.13-.435.43-.5.46-.22.108-.344.196-.41.297-.112.225-.236.486-.327.694.162-.033.364-.056.6-.036l.27-.077c.15-.028.465-.087.542-.15 0 0 .056-.06.058-.06l-.083-.113c-.042-.048-.133-.15-.133-.265 0-.053.02-.107.068-.16l.398-.126c.42-.05.655-.12.677-.34l.002-.04c0-.088-.04-.13-.09-.187-.045-.05-.12-.13-.12-.242 0-.03.006-.065.02-.1l.22-.235zM26.456 7.092c-.042-.13-.072-.19-.144-.203-.263-.048-.47.175-.693.447-.148.18-.275.336-.46.285l-.25-.145c-.128-.1-.214-.158-.35-.124-.13.034-.266.202-.365.358.13-.05.337-.12.504.047.186.188.09.438.04.57 0 0-.024.075-.02.117.007.092.02.254-.007.45.368-.237 1.04-.707 1.137-.658.11.053-.472.71-1.048 1.06-.123.074-.25.15-.29.182-.08.14-.194.276-.345.405.017.118-.023.245-.077.37.098.017.188.052.26.115l.14-.004c.335.018 1.353.07 1.52-.324.034-.08-.098-.266-.154-.345-.07-.1-.132-.185-.086-.298.054-.134.163-.133.4-.13.97.01 1.124-.127 1.13-.21.017-.225-.098-.282-.263-.338l-.187-.137c-.07-.05-.037-.075-.008-.156.057-.163.23-.278.43-.412.056-.037.107-.07.155-.106.02-.025.046-.046.077-.058.252-.192.384-.37.276-.633-.036-.088-.084-.116-.118-.13-.205-.08-.593.096-.76.17l-.235.067c-.142-.02-.184-.15-.21-.235zM26.22 11.91c-.187-.252-.677-.346-1.382-.27-.05.2-.107.532-.053.97.04.313.182.538.307.735l.05.082c.873-.163 1.028-.633 1.1-.866l.068-.158.172-.15s.12-.104.122-.1c-.017-.035-.137-.087-.182-.106 0 0-.184-.114-.2-.136zM19.17 12.348l.115-.053c.07-.036.153-.075.237-.115.033-.14.112-.443.238-.75-.27.136-.52.238-.662.286.04.15.057.347.07.597 0 0 0 .026.002.035zM20.633 10.125l-.078-.018-.225-.114c-.057-.03-.09-.005-.1-.07-.006-.063.023-.046.072-.088l.28-.24c.17-.092.685-.37.638-.544l-.114-.08s-.166-.173-.166-.17c-.033-.13.062-.204.137-.263.294-.227.57-.512.422-.855l-.138-.018-.274-.062c-.125-.074-.134-.217-.148-.397-.01-.113-.026-.35-.093-.386-.01-.005-.116-.035-.51.315l-.1.075c-.11.055-.208-.003-.254-.03l-.1-.04c-.235 0-.314.56-.34.742 0 0-.08.24-.082.24-.084.083-.195.08-.328-.01 0 0-.07-.04-.07-.045-.124.044-.204.11-.247.207-.03.065-.04.14-.04.218 0 .263.128.578.2.75.032.08.066.166.066.242 0 .067-.026.126-.107.167l-.15.032c-.062.003-.1.004-.15.063-.062.07-.087.17-.087.29 0 .272.134.633.28.922l.1-.333c.114-.38.763-1.53.927-1.467.164.064-.517 1.238-.618 1.578-.062.206-.108.396-.142.58.497-.193 1.633-.777 1.54-1.19zM14.39 11.39c0-.233.165-.426.29-.543-.075-.14-.142-.305-.142-.487 0-.185.07-.37.25-.52-.134-.126-.273-.09-.444-.016-.088.038-.207.09-.313 0-.026-.02-.045-.05-.057-.083-.078-.22-.26-.56-.422-.63l-.085-.002c-.323.14-.33.487-.31.832.008.157.014.27-.078.35l-.167.09c-.085.034-.106.048-.115.076-.06.18.095.354.276.532.106.104.198.194.168.325 0 0-.224.292-.25.302-.015.04-.02.173.007.233.012.025.017.052.018.078.192.192.363.528.428.92.022-.01.033-.03.056-.036l.287.035c.034.02.064.047.094.076-.035-.155-.07-.333-.094-.532-.1-.846-.043-1.125.066-1.163.11-.037.15.282.293 1.162.077.477.198.876.23.983.075.033.153.08.234.155.163-.108.52-.393.545-.637l.003-.13c0-.005.003-.01.004-.016-.03-.103-.047-.196-.047-.277 0-.178.062-.296.134-.394-.32-.057-.858-.168-.858-.68zM16.558 17.732c.016-.077.032-.192.032-.382 0-.287-.033-.727-.15-1.393-.264-1.505-1.063-1.737-1.448-1.848l-.042-.014c.09.256.158.56.158.993l-.003.192c-.002 1.2 1.067 2.162 1.453 2.45zM12.396 13.595c.244.188.496.36.703.49l.048.03c.005.003.012 0 .017.004.305.208.636.326.704.287l.012-.103c-.033-.777-.205-1.075-.28-1.124-.033.006-.108.09-.15.163-.043.08-.135.117-.22.093-.088-.024-.146-.105-.142-.195.028-.544-.243-.996-.354-1.095-.047.026-.134.19-.18.34-.026.09-.113.146-.205.136-.09-.01-.164-.083-.17-.176-.016-.205-.108-.55-.488-.67l-.062.113c-.048.1-.146.308-.345.23l-.11-.07c-.113-.08-.412-.29-.603-.25-.035.01-.088.03-.14.117-.125.216-.04.347.2.56l.186.284c0 .165-.147.243-.244.293-.062.033-.145.077-.145.11 0 .166.112.233.462.28l.287.11c.136.17-.036.332-.128.418 0 0-.123.134-.126.083.094.258.346.343.624.37.014.003.03.003.04.005h.004c.09.008.18.01.27.012.175 0 .355 0 .385.185l-.123.318s-.07.12-.098.122c.135.217.64.2 1.356-.04-.024-.107-.21-.358-.434-.576-.02-.01-.037-.023-.055-.035-.21-.128-.46-.3-.71-.49 0 0-.582-.506-.496-.64.086-.133.706.315.706.315zM16.84 13.48c-.006-.002-.01-.006-.018-.01.017.344.092.81.396 1.316l.623 1.042c.107-.366.245-.92.257-1.152.003-.073.006-.16.006-.254 0-.248-.024-.556-.09-.862l-.094.016c-.375.066-.582.103-1.08-.095z"/><path fill="#black" d="M18.594 9.324c-.087-.214-.206-.52-.206-.83 0-.12.02-.235.064-.345-.02-.096-.09-.298-.245-.37-.03-.016-.06-.008-.174.13-.084.102-.2.24-.375.19l-.28-.272c-.25-.335-.52-.655-.837-.582-.248.058-.274.355-.237.817.017.21.03.36-.17.455-.12.043-.244.103-.258.216-.032.25.126.403.28.528.02.017.04.036.06.056.368.088.698.56.858.895.176-.118.483-.315.733-.106.268.222.403.81.44 1.1h.005c.07-.013.165-.028.26-.02-.15-.29-.347-.748-.347-1.153 0-.204.05-.395.18-.544.086-.096.173-.142.25-.166z"/><path fill="#black" d="M18.243 12.706c.197-.714.24-1.09.244-1.136l-.167.017c-.118.02-.25.045-.354-.04-.043-.038-.087-.14-.087-.196 0-.185-.156-.81-.32-.947-.053-.017-.23.103-.29.142-.124.084-.223.15-.343.11-.057-.02-.117-.082-.135-.14-.127-.38-.545-.868-.71-.83-.184.044-.19.3-.19.313 0 .08-.052.152-.128.178-.076.027-.162.004-.213-.06-.044-.052-.212-.21-.49-.005-.298.22.007.65.02.668.03.042.042.094.034.145s-.036.097-.078.126c-.104.073-.257.232-.257.34 0 .172.21.243.575.308.198.035.368.065.398.237.022.135-.068.223-.127.28-.088.086-.18.176-.08.466.047.14.116.17.14.18.173.076.49-.06.678-.142l.356-.077c.057-.012.068-.036.113.002.046.037.022.055.02.114 0 0-.002.226-.018.274l.153.093c.395.157.515.136.868.074l.05-.008c-.024-.064-.044-.13-.074-.19l-.03-.062c-.104-.208-.278-.49-.537-.718-.374-.33-.9-.687-.846-.794.054-.105.648.23 1.088.558.258.193.445.413.484.465.086.115.178.197.25.256zM18.083 23.674c.02-.014.044-.028.068-.042-.012-.135-.056-.337-.172-.455-.067-.07-.154-.102-.266-.102-.265 0-.444.234-.55.444.07-.01.146-.016.23-.016.325 0 .554.096.69.17zM22.438 24.307c-.192-.27-.516-.437-.843-.437-.372 0-.504.15-.51.16-.067.077-.19.093-.27.03-.01-.008-.22-.17-.588-.17-.194 0-.33.035-.423.07.038.042.08.078.113.123l.823 1.2c.193.27.516.438.843.438.372 0 .504-.15.51-.157.065-.08.19-.096.27-.03.01.006.22.168.587.168.2 0 .34-.034.433-.07-.04-.042-.09-.076-.122-.12 0-.003-.827-1.212-.822-1.203zM14.47 23.513c.04-.003.077-.008.123-.008.324 0 .553.096.69.17.073-.053.185-.11.333-.147-.005-.07-.007-.143-.005-.224-.262-.03-.783-.05-1.14.21zM10.27 16.728c-.02-.102.403-.47.61-.626.352-.265.605-.452 1.078-.597-.12-.06-.214-.146-.278-.263-.026-.047-.037-.094-.037-.142 0-.1.05-.194.104-.28-.07-.002-.152-.006-.236-.014-.07-.01-.17 0-.238.065l.102.23c.062.107.11.19.073.294-.018.053-.066.103-.118.123-.092.036-.16 0-.243-.048-.168-.093-.615-.34-.926-.176 0 0-.048.035-.068.036l.094.105c.042.04.15.14.15.257 0 .044-.016.09-.056.137-.092.104-.22.083-.345.064-.23-.038-.438-.05-.605.18-.15.207-.09.28.005.4.062.078.176.222.083.386l-.168.186c-.327.306-.484.53-.317.776.098.055.532-.154.696-.233l.437-.168c.292-.02.36.24.39.35.037.145.04.154.202.12.4-.08.51-.376.625-.688.077-.207.15-.402.31-.528.094-.075.182-.073.24-.06.14.033.198.162.246.265l.017.03c.15-.15.354-.59.496-1.1.006-.022.017-.04.028-.057-.213.046-.482.115-.636.177-.5.205-1.69.9-1.713.798zM9.755 15.488c-.025-.05-.056-.096-.056-.157 0-.014 0-.028.002-.043.013-.1.085-.187.187-.263-.16-.06-.273-.143-.34-.207-.202-.197-.285-.468-.216-.666-.116-.06-.284-.174-.45-.332-.01-.004-.02 0-.028-.008-.173-.136-.474-.085-.604-.006-.027.042-.02.21-.015.3.01.205.02.417-.133.527-.166.124-.344.003-.516-.114-.228-.154-.412-.264-.544-.184l.028.217-.015.43-.327.177c-.122.035-.29.083-.33.162-.025.045-.008.117.01.17.072.207.25.236.593.218l.376.076.11.31c.013.13.027.213.102.28.224.206.702-.19.882-.338l.263-.13c.062-.03.08.042.136.08l.052.034c.025-.056.05-.11.094-.174.226-.31.51-.364.735-.358zM28.56 13.43l-.188-.045c-.128-.063-.156-.186-.085-.362.045-.11.084-.206-.058-.353-.186-.192-.687.125-.9.26-.167.105-.25.16-.363.11-.107-.045-.135-.148-.162-.247-.033-.125-.066-.188-.116-.215-.018.013-.058.042-.06.038 0 .004-.02.06-.02.06-.047.15-.144.438-.428.695.537.052 1.327.208 1.324.346-.003.177-1.34-.055-1.694-.032-.076.004-.143.015-.215.02-.093.034-.196.06-.308.085.036.093.103.195.124.205l.24-.04c.262-.054.587-.123.793.044.21.17.27.332.27.468 0 .118-.045.216-.075.28l-.008.022c.086.038.26.115.378.258.02-.028.035-.074.05-.146l.083-.183c.112-.112.243-.053.424.03.13.06.435.197.537.15.073-.034.093-.163.108-.314.013-.132.027-.256.134-.328l.324-.01c.153.03.41.08.542-.012.06-.042.1-.12.115-.234.047-.307-.17-.46-.77-.553z"/><path fill="#black" d="M7.805 14.198l.045.027.002-.102c-.003-.05-.006-.104-.006-.16 0-.18.03-.362.178-.464-.08-.017-.162-.03-.24-.043-.337-.047-1.4-.05-1.397-.195.004-.165 1.197-.223 1.595-.16.177.027.354.074.526.132l-.117-.313s-.048-.17-.064-.204l-.036-.08c-.005-.006-.014-.01-.02-.018-.25-.368-.57-.646-.715-.622-.083.015-.105.06-.14.203-.022.09-.058.242-.214.273-.123.025-.213-.053-.362-.182-.176-.15-.47-.403-.69-.355-.074.016-.108.023-.06.307.024.15.06.357-.12.452l-.392-.007c-.163-.036-.387-.086-.495-.014-.015.01-.065.044-.088.173-.05.278.186.398.608.512l.284.134c.115.148-.004.3-.075.392-.16.204-.14.237-.07.298.228.205.424.1.677-.07l.277-.13c.072-.002.126.007.172.02.36-.192.72.048.94.196zM21.286 15.25c-.454-.04-.733.102-.75.11-.066.037-.146.032-.207-.01-.052-.038-.083-.097-.083-.158 0-.01 0-.022.003-.033.018-.105.097-.296.186-.496-.45.454-.93 1.064-1.14 1.357-.056.08-.162.105-.248.06-.064-.035-.1-.102-.1-.17 0-.023.003-.047.012-.07.068-.176.083-.488.1-.818.02-.46.044-.983.213-1.435.173-.463.382-.835.607-1.144-.15.067-.305.138-.425.198-.35.173-.48.238-.597.098l-.077-.404c0-.043-.005-.1-.01-.16-.042.204-.104.46-.196.783-.03.103-.136.162-.24.133-.037-.01-.066-.035-.09-.063-.003 0-.006.002-.01.004.188.478.254 1.006.254 1.397 0 .1-.002.19-.006.27 0 .017-.24 1.678-.546 1.762-.083.022-.17-.008-.216-.082l-.284-.47-.55-.922c-.472-.79-.46-1.503-.455-1.847v-.035c-.257.11-.607.24-.907.108-.024-.01-.04-.033-.062-.046-.106.227-.303.416-.462.543l.1.03c.386.113 1.415.41 1.72 2.153.083.478.156 1.023.156 1.463 0 .36-.05.65-.183.774-.047.044-.147.076-.21.06-.122-.03-1.912-1.246-1.864-2.97.032-1.175-.39-1.49-.494-1.505-.006 0-.01-.004-.017-.006.034.194.052.395.06.58.01.274-.107.4-.21.455-.105.06-.235.038-.37.013.058.105.1.21.1.307 0 .023 0 .047-.006.07-.026.115-.106.202-.227.244-.214.073-.408.125-.59.164.956.342 1.762 1.638 1.887 1.958.06.155.426.74.72 1.21.65 1.036.666 1.082.65 1.187-.172 1.207-.74 2.112-1.596 2.55l-.305.15c-.575.288-1.392.7-1.895 1.046l.058.028c.123-.088.33-.19.678-.19.244 0 .482.072.693.192.003-.024.01-.048.02-.07.41-.766 1.36-.74 1.78-.69.03-.128.068-.258.132-.382.066-.13.15-.273.238-.424.245-.423.606-1.32.71-1.32.102 0 .074.737-.377 1.514-.085.147-.167.287-.23.408-.072.14-.106.292-.122.44v.03l-.004.005c-.01.11-.01.21-.003.302.232.007.458.074.66.19.008-.006.022-.012.03-.017.002-.012.002-.025.006-.037.207-.596.576-.938 1.017-.938.215 0 .403.076.543.22.172.174.24.414.268.593.07-.01.15-.017.238-.017.252 0 .5.078.716.206.125-.08.363-.188.75-.188.264 0 .46.062.6.126l-.01-.063c-.138-.375-.442-.5-.827-.664-.512-.214-1.15-.483-1.52-1.444-.183-.468-.264-1.08-.296-1.636-.022-.383.05-1.592.147-1.598.097-.005.217 1.194.24 1.57.03.526.103 1.1.268 1.524.313.81.82 1.022 1.312 1.23.38.16.77.323.984.756.01.018.055.12.103.23.102-.03.22-.05.37-.05.247 0 .483.08.698.204.103-.06.274-.136.54-.168-.18-.202-.522-.35-1.43-.73l-.16-.068c-1.375-.58-1.71-1.17-1.954-1.602l-.03-.055c-.247-.43-.748-2.794.264-4.344.608-.934 1.386-1.313 1.765-1.453.002-.002 0-.012 0-.017zM26.48 15.122c-.105-.046-.205-.09-.24-.202l.053-.334c.055-.118.073-.157-.088-.288-.064-.052-.338.006-.47.035l-.443.026c-.102-.04-.178-.122-.238-.205-.026.015-.047.03-.078.043-.355.152-1.08.19-1.675-.146-.226.186-.567.23-.786.254l-.046.007c.032.072.08.173.107.238.514-.106.924-.075 1.093.06.11.087.14.192.14.296 0 .043-.012.082-.02.124l.253.038c.476.055.774.1.9.263.063.084.085.168.085.248 0 .117-.05.217-.088.29l.12.04c.102.03.21.063.308.103l.147.02c.142.022.275.043.36-.01.027-.017.035-.03.043-.125l.11-.275.346-.054c.228.028.3.013.334-.067.09-.206.03-.268-.225-.378z"/><path fill="#black" d="M25.337 17.08l-.2-.246c-.004-.022-.006-.042-.006-.062 0-.126.09-.216.152-.28 0 0 .05-.057.064-.06-.048-.055-.28-.123-.395-.155-.217-.062-.36-.104-.415-.23-.015-.035-.02-.07-.02-.103 0-.083.038-.16.07-.227.04-.075.06-.12.06-.138l-.002-.006c-.077-.06-.46-.104-.646-.124-.4-.046-.583-.067-.61-.26l.022-.198s.014-.08.02-.08c-.08-.05-.556-.11-1.29.164.243.12.503.28.76.465.245.177.6.615.492.707-.107.092-.502-.238-.717-.394-.26-.187-.7-.374-.986-.48.055.432.17.988.318 1.14.043-.048.158-.174.323-.112.12.045.168.163.264.398.092.223.282.687.472.712.172.023.2-.03.243-.12.027-.056.102-.207.27-.178l.255.184c.12.123.318.328.467.32.134-.004.19-.074.257-.154.054-.067.13-.16.26-.16l.172.04c.245.083.387.097.488-.053.025-.04.04-.068.04-.1 0-.05-.05-.106-.183-.21zM19.34 2.044c.15-.04.328-.044.454.146.142.213.196.42.196.615 0 .385-.203.684-.363.893.146.026.308.094.385.292.02.048.028.104.028.163 0 .196-.09.44-.19.654.16-.073.313-.056.416-.034.008-.023.02-.05.02-.05.107-.306.29-.816.706-.973h.24c.004-.056 0-.12-.025-.162-.012-.02-.027-.04-.078-.042-.085-.005-.156-.063-.177-.144-.02-.08.013-.167.083-.212.238-.15.642-.508.542-.69-.124-.227-.27-.25-.388-.27l-.196-.074c-.096-.083-.083-.2-.065-.35.042-.36.026-.563-.185-.615-.238-.058-.418.152-.612.41-.12.158-.22.295-.388.26l-.235-.153c-.064-.062-.116-.108-.174-.13.02.1.03.202.03.3 0 .065-.02.105-.026.167z"/><path fill="#black" d="M17.452 4c.312.21.408.483.408.746 0 .32-.145.625-.22.785l-.003.005.176.016.126.006c.04-.148.186-.693.3-1.206.114-.52.18-1 .25-1.008.15-.014.143.396.085.915-.054.506-.195 1.103-.265 1.376.253-.225.542-.36.728-.435.056-.035.134-.083.226-.12.255-.4.422-.845.39-.948-.022-.057-.1-.068-.248-.068-.097 0-.23 0-.293-.126-.06-.125.016-.217.104-.324.29-.35.55-.77.258-1.21-.04-.01-.154.054-.192.074-.073.04-.194.106-.305.01-.06-.053-.08-.16-.05-.237.062-.17.1-.6-.055-.856-.07-.116-.17-.18-.31-.2-.162-.02-.297.402-.37.63-.072.224-.116.36-.226.422l-.377.008c-.113-.03-.186-.046-.25-.01-.193.113.052.577.197.854.133.253.208.393.13.527-.033.057-.12.107-.187.11-.145.006-.334.038-.418.154-.022.03-.036.067-.044.104.118-.072.267-.106.434.006zM21.327 4.294c-.023-.067-.062-.18-.1-.198l-.1.015c-.25.094-.398.515-.48.74-.067.19-.116.33-.276.33l-.112-.02c-.108-.03-.218-.05-.334.074.084.104.12.218.14.29 0 0 .012.042.02.062.12.237.185.485.206.74.095-.127.217-.275.358-.415.35-.342.776-.634.867-.522.063.08-.274.407-.574.745-.098.11-.187.223-.266.326.12-.038.243-.042.357.02.253.135.277.46.295.695l.01.097.056.006c.053.004.11.01.17.023.108-.058.326-.2.375-.352.03-.09-.006-.146-.068-.23-.044-.056-.103-.135-.075-.242.015-.058.092-.13.146-.154.183-.08.33-.155.45-.23.018-.018.04-.032.066-.04.243-.16.346-.297.352-.385.01-.14-.04-.176-.134-.242-.077-.054-.194-.136-.194-.292l.23-.332c.135-.12.34-.305.344-.467.002-.07-.034-.142-.11-.22-.117-.117-.227-.174-.337-.172-.227.005-.46.258-.616.426l-.355.244c-.197.002-.264-.19-.308-.316zM23.085 6.61l.153-.078c.22-.127.558-.32.897-.212.087-.067.23-.17.408-.247.362-.156.788-.318.85-.246.058.072-.313.317-.65.52-.108.064-.202.128-.28.184.15.153.21.304.223.43.205.015.354.13.46.21l.065.044c.043-.046.11-.123.11-.123.206-.25.55-.668 1.053-.583-.007-.113-.054-.256-.107-.355-.025-.045-.03-.1-.015-.147.016-.05.05-.09.095-.114.137-.072.432-.28.468-.458.007-.035.008-.085-.05-.154-.18-.217-.45-.148-.738-.05l-.31.037-.18-.205c-.046-.095-.085-.177-.242-.215-.143-.035-.428.216-.58.352l-.386.22-.296-.185s-.15-.12-.152-.134c-.1.025-.37.338-.42.435l-.166.164-.102.008c-.016.18-.147.355-.36.524.105.113.19.255.255.38zM8.184 11.114c.168.223.01.506-.138.694.096.074.186.16.266.244.002-.005.002-.01.006-.015.186-.295.503-.29.664-.306.046-.036.112-.09.197-.142.008-.017.012-.04.012-.064 0-.037-.008-.074-.016-.11l-.042-.026c-.157-.1-.496-.317-.496-.707 0-.053.006-.11.02-.172.063-.26.233-.396.413-.476-.05-.117-.084-.248-.11-.367 0 0-.043-.145-.043-.2 0-.01.003-.013.006-.016l-.245.07c-.206.078-.42.158-.575.024l-.118-.156-.29-.374c-.18-.17-.453-.306-.654-.232-.075.03-.09.103-.066.32.012.116.028.26-.104.334l-.273-.004c-.277-.083-.428-.083-.535.14-.072.15-.08.274-.025.38.138.263.63.393.807.42.077.012.14.07.157.146.02.076-.01.156-.074.202-.047.034-.187.158-.2.273l.045.122c.065.076.19.04.462-.07.29-.12.686-.28.952.07z"/><path fill="#black" d="M15.817 3.858c-.195.052-.176.41-.144.744.02.21.033.34-.057.43-.1.1-.23.082-.316.068-.116-.018-.14-.02-.184.075-.043.095.092.325.4.684.127.147.18.208.162.31-.005.032-.022.097-.117.17.066.096.13.205.188.33.064.01.14.04.213.116.065.067.115.167.157.278.068-.075.158-.135.274-.173-.035-.138-.076-.32-.104-.512-.068-.47-.08-.994 0-1.015.13-.033.244.526.354.997.048.208.104.393.142.51.196.037.37.145.514.277 0-.195.04-.394.168-.55.094-.115.225-.187.383-.226.042-.155.1-.295.18-.415l-.22-.02c-.217-.002-.543-.01-.594-.288l.078-.282c.224-.472.293-.812-.057-1.05l-.15.128c-.082.086-.174.184-.312.153l-.242-.22c-.154-.206-.443-.588-.71-.518z"/><path fill="#black" d="M13.242 5.405l-.23.36c-.083.074-.14.126-.14.177 0 .035.082.1.562.17-.033-.2-.066-.523.216-.646.183-.08.357-.024.5.057-.054-.128-.128-.28-.227-.437-.125-.2-.48-.626-.36-.76.123-.136.595.394.744.647.183.314.28.592.322.736.11.018.235.054.37.12-.144-.19-.275-.412-.275-.623 0-.065.013-.13.04-.19.135-.293.353-.316.53-.3l-.006-.076c-.01-.102-.023-.23-.023-.363 0-.086.006-.173.02-.258-.163-.095-.26-.04-.347.025-.052.036-.14.1-.25.055-.128-.05-.132-.16-.138-.34-.01-.263-.033-.957-.347-1.003-.077-.012-.176.168-.236.275-.08.145-.157.28-.31.293-.126.01-.206-.077-.337-.222-.38-.417-.666-.61-1.01-.37-.26.182-.077.604.137.99l.087.3c-.03.11-.127.15-.22.188-.15.063-.267.12-.282.25-.037.336.318.468.75.593.25.074.467.136.457.352zM8.23 9.07c-.002.002 0 .003-.003.004l-.268-.342-.02-.015c.093-.086.285-.21.36-.212.085-.004.19-.065.21-.148.04-.162-.09-.222-.24-.292-.783-.364-.897-.578-.856-.692.025-.07.156-.13.25-.177l.22-.14c.087-.098.063-.22.026-.408-.085-.422-.092-.686.125-.777.1-.04.198.048.363.253l.292.246c.22.054.333-.165.417-.324.036-.068.11-.21.153-.23.15.004.226.495.258.704.04.26.063.416.22.463.198.062.333-.1.414-.194.067-.08.108-.123.13-.115.136.042.16.398.172.61.015.24.026.41.146.503.07.055.252.147.512-.038.204.197.534.222.73.234l.172.02v.012c0 .096-.035.192-.06.247-.68-.237-1.2-.118-1.454-.058l-.11.023-.14.006-.394.15c-.01.01-.012.023-.02.035-.19-.14-.445-.355-.64-.597-.31-.39-.454-.85-.57-.805-.233.09.067.708.23.94.24.342.705.766.99.93l.003.02c-.003.16.02.335.064.51-.242.088-.312.336-.346.46l-.007.025-.086.018-.024.005c-.05-.07-.096-.262-.114-.346-.045-.196-.084-.365-.205-.455-.163-.125-.38-.043-.588.035l-.218.066-.095-.155z"/><path fill="#black" d="M11.5 6.73l-.104.346-.076.21c0 .24.136.29.545.314.214.013.458.028.515.246.03.12.02.235 0 .34.025.002.05.002.075.008.287.07.528.305.694.648.047-.034.102-.063.162-.09l.395.003c.275.12.468.48.564.694.19-.078.565-.195.873.205.166-.038.312-.014.432.038.04-.098.102-.192.19-.266-.12-.12-.243-.304-.267-.553-.386.178-.87.18-1.36-.02-.347-.14-.633-.425-.696-.692-.032-.137-.002-.263.08-.357.002 0 .004-.002.005-.004-.344-.607-.295-1.042-.19-1.31-.4-.06-.795-.166-.84-.49-.027.003-.052.008-.076.008l-.333-.15c-.37-.24-.703-.41-.997-.093-.144.154-.053.314.204.613l.205.35zM14.262 2.375c.578.085.65.826.668 1.247.132-.05.308-.065.516.042.067-.08.15-.146.273-.18.18-.047.348-.01.498.067.063-.416.096-1.02.033-1.14-.033.003-.123.068-.177.13-.055.064-.146.085-.223.05-.078-.033-.124-.113-.115-.197.042-.376 0-.93-.194-.99-.164-.05-.183-.016-.222.054-.102.183-.23.167-.296.143l-.198-.19c-.157-.2-.522-.665-.79-.542-.205.096-.022.564.077.816.085.213.127.32.054.43-.07.108-.194.118-.302.126-.196.016-.247.04-.27.132-.028.12.042.245.118.337.114-.18.283-.375.552-.335zM18.03 5.947l-.03-.04c.01.013.024.023.036.034l-.005.007zM23.946 11.55l-.002.002c-.01-.024-.023-.063-.023-.063.015.04.026.053.026.06z"/><path fill-rule="evenodd" clip-rule="evenodd" fill="#black" d="M20.534 64.023c.028.154-.445.216-.714.205-.394-.016-.787-.063-.762-.237.025-.174.385-.128.762-.11.252.01.686-.01.714.143z"/><path fill="#black" d="M9.598 48.945h-.003l-.19-.002c-.056 0-.11-.026-.145-.07-.005-.005-.476-.555-1.112-.555-.454 0-.85.17-1.23.337-.346.15-.67.29-1.01.29h-.97c-.108 0-.194-.085-.194-.193v-5.435l-.43.28v5.518H8.64c.052 0 .103.02.14.06.002.002.304.31.733.353l.19-.003c.417-.052.708-.348.71-.35.037-.04.087-.06.14-.06h4.33v-5.52c-.074-.047-.266-.17-.432-.28v5.436c0 .108-.087.194-.193.194h-.97c-.34 0-.666-.14-1.01-.29-.382-.166-.778-.337-1.23-.337-.636 0-1.107.55-1.112.556-.036.042-.09.068-.146.07h-.19l-.004.002z"/><path fill="#black" d="M15.27 49.308c0 .107-.087.193-.193.193H10.63c-.124.113-.44.355-.88.41 0 0-.27.003-.272.002-.458-.046-.785-.298-.912-.412H4.12c-.106 0-.193-.086-.193-.193v-5.635H3.53v6.262h5.007c.055 0 .11.025.146.067.002.004.227.258.642.334.147.026.44.02.568-.004.4-.075.617-.324.62-.327.037-.043.09-.07.147-.07h5.005v-6.26h-.396v5.635z"/><path fill="#black" d="M8.03 42.313c-.68 0-1.037.262-1.353.492-.242.177-.472.345-.785.345H5.13v5.41h.777c.26 0 .536-.12.856-.26.4-.17.85-.367 1.384-.367.59 0 1.037.34 1.256.543l.007-5.467c-.007-.03-.213-.697-1.38-.697zm.623 4.54c-.01.047-.017.05-.062.07-.112-.024-.484-.066-.832.024l-.597.24-.315.152c-.43.19-.77.214-.866.218-.048 0-.088-.036-.09-.083 0-.047.037-.087.083-.09.088 0 .403-.025.802-.202l.31-.148.632-.253c.457-.12.907-.028.91-.026.043.03.037.05.026.097zm0-1.15c-.01.046-.017.05-.062.07-.112-.024-.484-.066-.832.024l-.597.24-.315.152c-.43.19-.77.215-.866.218-.048 0-.088-.036-.09-.083 0-.047.037-.087.083-.09.088-.002.403-.026.802-.203l.31-.147.632-.253c.457-.12.907-.028.91-.027.043.03.037.05.026.098zm0-1.134c-.01.045-.017.05-.062.068-.112-.024-.484-.065-.832.024l-.597.24-.315.15c-.43.19-.77.217-.866.22-.048 0-.088-.035-.09-.083 0-.05.037-.088.083-.09.088-.003.403-.027.802-.204l.31-.147.632-.254c.457-.12.907-.027.91-.026.043.032.037.052.026.1zm0-1.15c-.01.047-.017.05-.062.07-.112-.024-.484-.065-.832.025l-.597.24-.315.15c-.43.19-.77.217-.866.22-.048.002-.088-.035-.09-.082 0-.048.037-.087.083-.09.088 0 .403-.026.802-.203l.31-.148.632-.253c.457-.12.907-.028.91-.027.043.03.037.05.026.098z"/><path fill="#black" d="M9.79 48.943l-.188.002h-.007l-.19-.002c-.056 0-.11-.026-.145-.07-.004-.005-.475-.555-1.11-.555-.455 0-.85.17-1.232.337-.345.15-.67.29-1.01.29h-.97c-.108 0-.194-.085-.194-.193v-5.435l-.43.28v5.518H8.64c.052 0 .103.02.14.06.002.002.304.31.733.353l.19-.003c.417-.052.708-.348.71-.35.037-.04.087-.06.14-.06h4.33v-5.52c-.074-.047-.266-.17-.432-.28v5.436c0 .108-.087.194-.193.194h-.97c-.34 0-.666-.14-1.01-.29-.382-.166-.778-.337-1.23-.337-.636 0-1.107.55-1.112.556-.038.044-.09.07-.147.07z"/><path fill="#black" d="M15.665 43.673h-.396v5.635c0 .107-.087.193-.193.193H10.63c-.124.113-.44.355-.88.41 0 0-.27.003-.272.002-.458-.046-.785-.298-.912-.412H4.12c-.106 0-.193-.086-.193-.193v-5.635H3.53v6.262h5.007c.055 0 .11.025.146.067.002.004.227.258.642.334.147.026.44.02.568-.004.4-.075.617-.324.62-.327.037-.043.09-.07.147-.07h5.005v-6.26z"/><path fill="#black" d="M13.304 43.15c-.314 0-.543-.167-.785-.345-.316-.23-.674-.492-1.352-.492-1.168 0-1.375.667-1.375.644v5.52c.22-.205.667-.544 1.255-.544.534 0 .986.196 1.385.368.32.14.597.26.856.26h.776v-5.41h-.762zm-.093 4.395c-.095-.003-.44-.028-.865-.218l-.316-.15-.6-.243c-.346-.088-.72-.047-.832-.024-.046.01-.092-.02-.102-.066-.01-.046.02-.092.067-.1.005-.002.455-.09.91.025l.632.252.31.148c.4.177.716.2.803.204.048.002.084.042.083.088-.002.048-.042.085-.09.083zm0-1.133c-.095-.003-.44-.03-.865-.22l-.316-.15-.6-.24c-.346-.09-.72-.047-.832-.024-.046.01-.092-.02-.102-.066-.01-.047.02-.092.067-.1.005-.002.455-.092.91.025l.632.253.31.148c.4.177.716.2.803.204.048.002.084.04.083.09-.002.044-.042.082-.09.08zm0-1.144c-.096-.003-.44-.03-.866-.22l-.32-.15-.594-.24c-.35-.09-.72-.05-.833-.026-.047.01-.092-.02-.102-.066-.01-.046.02-.092.066-.102.006 0 .45-.092.912.026l.63.253.312.15c.398.176.715.2.803.204.047 0 .084.04.082.088-.003.048-.042.086-.09.083zm0-1.143c-.094-.004-.437-.03-.865-.22l-.316-.15-.6-.24c-.348-.09-.72-.05-.832-.025-.06-.01-.083-.03-.093-.077-.01-.047.017-.067.058-.09.005-.002.453-.093.91.025l.632.254.31.148c.4.177.716.2.803.204.048.002.084.042.083.09-.002.046-.042.082-.09.08zM25.137 48.945l.19-.002c.056 0 .11-.026.145-.07.006-.005.476-.555 1.112-.555.454 0 .85.17 1.232.337.344.15.67.29 1.01.29h.97c.106 0 .193-.085.193-.193v-5.435l.43.28v5.518h-4.33c-.05 0-.102.02-.14.06-.002.003-.293.3-.71.35l-.19.004c-.43-.045-.73-.352-.734-.355-.036-.038-.086-.06-.14-.06H19.85v-5.518c.072-.048.262-.172.43-.28v5.435c0 .107.086.193.192.193h.97c.34 0 .666-.14 1.01-.29.383-.166.778-.337 1.23-.337.638 0 1.11.55 1.113.556.036.042.09.068.146.07h.197z"/><path fill="#black" d="M30.806 49.308c0 .107-.086.193-.193.193h-4.446c-.125.113-.44.355-.88.41 0 0-.27.003-.273.002-.457-.046-.783-.298-.91-.412h-4.446c-.107 0-.193-.086-.193-.193v-5.635h-.396v6.262h5.004c.057 0 .11.025.147.067.003.004.227.258.642.334.147.026.44.02.568-.004.4-.075.617-.324.62-.327.035-.043.09-.07.147-.07h5.005v-6.26h-.395v5.635z"/><path fill="#black" d="M25.328 48.943l-.19.002h-.003-.003l-.19-.002c-.056 0-.108-.026-.145-.07-.004-.005-.476-.555-1.112-.555-.454 0-.848.17-1.23.337-.345.15-.67.29-1.01.29h-.97c-.107 0-.194-.085-.194-.193v-5.435l-.43.28v5.518h4.33c.052 0 .102.02.138.06.003.003.305.31.734.354l.19-.004c.417-.052.708-.348.71-.35.038-.04.088-.06.14-.06h4.33v-5.52c-.074-.047-.265-.17-.43-.28v5.436c0 .107-.087.193-.194.193h-.97c-.34 0-.666-.14-1.01-.29-.383-.166-.778-.337-1.232-.337-.636 0-1.106.55-1.112.556-.037.043-.09.07-.146.07z"/><path fill="#black" d="M31.2 43.673h-.394v5.635c0 .107-.086.193-.193.193h-4.446c-.125.113-.44.355-.88.41 0 0-.27.003-.273.002-.457-.046-.783-.298-.91-.412h-4.446c-.107 0-.193-.086-.193-.193v-5.635h-.396v6.262h5.004c.057 0 .11.025.147.067.003.004.227.258.642.334.147.026.44.02.568-.004.4-.075.617-.324.62-.327.035-.043.09-.07.147-.07h5.005v-6.26z"/><path fill="#black" d="M23.565 42.313c-.678 0-1.035.262-1.352.492-.242.177-.47.345-.785.345h-.763v5.41h.778c.26 0 .536-.12.857-.26.398-.17.85-.367 1.384-.367.588 0 1.037.34 1.257.543.002-.5.007-5.467.007-5.467-.007-.03-.214-.697-1.382-.697zm-2.07 1.64c.086-.002.4-.027.8-.204l.31-.15.633-.252c.458-.12.907-.027.91-.026.037.016.072.06.062.107-.01.045-.033.05-.096.06-.114-.024-.485-.065-.834.025l-.598.24-.315.15c-.428.19-.77.217-.866.22-.047.002-.086-.035-.088-.082-.002-.048.035-.088.082-.09zm-.002 1.145c.088-.004.405-.028.803-.205l.312-.15.63-.25c.46-.12.906-.028.91-.027.046.01.076.055.066.102-.01.046-.055.076-.1.066-.114-.023-.484-.065-.835.025l-.596.238-.318.152c-.426.19-.77.216-.866.22-.047 0-.087-.036-.09-.083 0-.048.036-.088.083-.09zm2.62 1.82c-.113-.022-.485-.062-.833.025l-.595.24-.318.152c-.425.19-.77.215-.866.22-.047 0-.086-.036-.088-.084s.036-.086.083-.088c.087-.003.405-.027.802-.204l.312-.148.628-.252c.458-.117.906-.028.91-.027 0 0 .045.022.037.105-.005.047-.034.06-.07.064zm0-1.142c-.114-.023-.485-.064-.833.024l-.598.242-.315.15c-.426.19-.77.216-.866.22-.047 0-.086-.036-.088-.084 0-.048.036-.087.083-.09.087-.002.404-.026.802-.203l.31-.148.63-.254c.457-.117.907-.027.912-.026.045.01.075.054.065.1-.01.05-.055.08-.1.07zM26.584 47.933c-.59 0-1.037.34-1.256.543v-5.52c0 .024.208-.643 1.375-.643.678 0 1.036.262 1.35.492.243.177.472.345.786.345h.762v5.41h-.778c-.26 0-.536-.12-.856-.26-.398-.17-.85-.367-1.384-.367zm-.5-3.468c-.046.01-.076.055-.066.1s.055.078.102.067c.114-.023.485-.065.834.025l.597.24.317.152c.427.19.77.215.866.218.047.002.087-.035.09-.083 0-.047-.037-.087-.084-.09-.088-.002-.403-.026-.803-.203l-.31-.148-.63-.254c-.46-.117-.91-.026-.913-.025zm0-1.18c-.046.008-.076.054-.066.1.01.046.055.077.102.067.113-.023.484-.064.834.025l.594.24.32.15c.425.19.77.217.864.22.048.002.088-.035.09-.082 0-.047-.036-.087-.084-.088-.088-.004-.404-.028-.802-.205l-.313-.15-.628-.252c-.46-.117-.906-.027-.91-.026zm0 2.324c-.046.008-.077.053-.067.1.01.046.055.076.1.066.115-.023.49-.064.836.024l.597.242.316.15c.427.19.77.216.866.22.047 0 .087-.036.09-.084 0-.048-.037-.087-.084-.09-.087-.002-.403-.026-.802-.203l-.31-.148-.63-.253c-.365-.092-.755-.057-.912-.025zm0 1.14c-.046.01-.077.056-.067.102.01.047.055.076.1.067.115-.024.487-.064.836.024l.595.24.318.15c.426.19.77.216.866.22.047.002.087-.035.09-.083 0-.046-.037-.086-.084-.088-.087-.003-.405-.027-.802-.204l-.312-.15-.628-.25c-.366-.093-.756-.058-.912-.027zM13.465 59.54c-.04-.058-.138-.148-.266-.243-.067.09-.168.184-.32.24l-.322.07c-.356.062-.845.146-1 .524-.065.164-.09.315-.09.445 0 .212.058.346.1.422.042-.017.094-.042.146-.068-.103-.405.113-.794.174-.762.04.02.022.247.044.423.01.073.03.134.05.178.08-.053.145-.104.16-.138.043-.316.28-.51.476-.51l.223.07c.214.09.713.304.905.123-.07-.265-.198-.65-.28-.773zM19.063 61.42c-.045-.022-.082-.054-.124-.08-.004.002-.007.002-.012.002-.248 0-1.382-.19-1.552-.224 0 0-.137-.035-.527.122-.323.128-.525.373-.652.608.043.034.107.076.175.117.1-.15.247-.34.518-.442.223-.086.557-.126.692-.06.088.044-.29.15-.577.348-.133.093-.228.228-.288.325.008.002.018.007.024.01.08.017.267-.034.418-.074l.403-.087c.19-.02 2.19-.006 2.753-.002.033-.066.06-.135.08-.195-.3-.033-.84-.12-1.33-.365z"/><path fill-rule="evenodd" clip-rule="evenodd" fill="#black" d="M19.75 64.886c.035.153-.535.216-.86.204-.474-.016-.948-.063-.917-.238.03-.173.463-.128.92-.112.302.01.825-.007.858.146zm-.86.875c-.032-.145-.523-.128-.808-.138-.428-.016-.834-.06-.862.108-.03.167.416.21.86.228.304.01.84-.05.81-.197zm-.96.906c-.023-.128-.388-.114-.6-.122-.318-.014-.62-.05-.64.094-.023.146.31.185.64.2.226.007.625-.044.6-.172zm-7.715-10.8l-.103.035c-.1.035-.155.144-.122.245s.143.156.244.123l.102-.034c.1-.034.157-.143.123-.244-.035-.1-.144-.156-.245-.123zm5.957-1.64c-.03-.05-.11-.07-.158-.048l-1.06.354c-.097.044-.123.18-.08.278.045.097.172.176.27.132l.993-.55c.05-.022.07-.11.035-.166zm.157.944c-.023-.055-.1-.087-.148-.075l-.822.122c-.104.026-.153.156-.126.26.026.102.137.202.24.176l.79-.326c.054-.014.09-.097.065-.157zm.023 1.01c-.013-.057-.083-.1-.134-.096l-.647-.028c-.096.01-.157.118-.148.213.01.095.094.198.19.19l.648-.135c.057-.004.104-.08.09-.144zm-.156.944c-.004-.053-.06-.1-.107-.104l-.483-.11c-.086-.004-.155.085-.158.17-.005.088.058.19.144.195l.507-.033c.05.002.103-.062.097-.118zm4.07-3.325c-.025.103.038.207.142.232.004 0 .56.17.99.348.08.034.17.01.21-.066.04-.076.01-.17-.066-.21-.482-.252-1.025-.443-1.045-.447-.105-.025-.21.04-.234.142zm.236.89c-.022.095.035.188.128.21.005 0 .42.114.747.25.072.03.154.01.19-.06.036-.068.01-.153-.06-.188-.434-.228-.778-.334-.796-.338-.09-.023-.185.034-.207.127zm.082.82c-.018.075.03.15.104.168.002 0 .386.115.518.172.065.027.14.008.17-.054s.01-.14-.053-.17c-.39-.206-.495-.21-.57-.223-.076-.01-.15.03-.17.106zm-.026.73c-.017.07.024.138.092.154.003 0 .23.05.337.086.058.02.124.008.153-.047.03-.056.007-.125-.048-.154-.12-.064-.328-.13-.384-.132-.056 0-.135.025-.15.093zm1.828-1.038c-.054.092-.023.21.068.264.004.002.224.11.583.406.065.056.16.06.22 0 .06-.062.06-.16-.002-.223-.388-.382-.59-.506-.606-.517-.092-.054-.21-.024-.264.07zm-.13.89c-.047.085-.015.19.07.236.003.002.13.045.413.26.063.047.147.048.2-.01.052-.056.047-.145-.01-.197-.362-.33-.422-.35-.438-.358-.085-.045-.19-.013-.235.07zm-.21.707c-.038.066-.016.153.05.19.004.003.146.086.256.18.054.043.13.047.18-.003.048-.05.046-.13-.002-.18-.052-.052-.215-.206-.29-.238-.072-.033-.154-.018-.193.05zm-.27.57c-.042.058-.03.137.028.178.003 0 .05.023.135.097.048.04.113.054.162.013.048-.04.053-.11.014-.16-.087-.104-.11-.134-.163-.156-.05-.022-.136-.03-.176.03zm1.828-.265c-.055.055-.056.144 0 .2 0 0 .07.065.152.184.04.057.112.08.173.044.062-.036.08-.112.046-.173-.037-.063-.107-.202-.172-.253-.06-.05-.143-.056-.198-.002zm-.396.527c-.05.05-.05.132 0 .18.05.046.078.07.087.08.054.047.102.07.156.04.054-.033.066-.1.04-.158-.025-.05-.056-.112-.104-.142-.05-.03-.13-.05-.18 0zm-12.756-.092c.16-.08-.218-.41-.114-.63.114-.24.93-.59.917-.725-.012-.137-1.095.2-1.267.56-.18.383.302.876.464.795zm1.204-2.13c.146.07.227-.08.282-.1.022-.008.078-.042.166-.005.09.04.088.1.094.117.008.027.01.17.13.195.12.027.374-.424-.052-.63-.136-.066-.285-.076-.42-.028-.265.095-.346.383-.2.45zm11.813-.302c-2.895-3.5-6.91-1.815-7.117-1.73-.803.16-1.48.516-1.925.75l-.468.218-1.474.182c-.435.092-1.04.424-1.807.846l-.562.306c-.907.49-1.058.883-1.06.888-.017.05-.056.093-.103.115-.092.04-.206.115-.228.233-.002.013-.003.026-.003.04 0 .014.006.028.01.042l.195-.107c.093-.05.21-.016.26.078.052.094.018.21-.076.262l-.198.108c.144.248.36.3.36.304l.084-.024c.186-.06.677-.22.91.393l-.012.318c-.053.116-.16.2-.26.266.174.06.464.03.584.018l.112-.01.21-.036c.517-.094 1.098-.19 1.463-.11.505.112 1.228.587 1.42.874.137.207.436 1.11.398 1.3-.02.124-.076.505-.5.726-.253.13-.536.127-.762.124 0 0-.238.01-.238.006-.056.044-.19.242-.324.45h.212c.136-.142.327-.318.396-.267.045.032.016.144-.033.265h.42l.18.003c.248.008.712.022.857-.105l.204-.166.656-.54.684-.552.28-.223c.134-.116.152-.985.04-1.86-.014-.106.06-.203.167-.217.105-.013.202.062.216.167.046.375.116 1.093.046 1.623.016.005.032.01.047.02.528.35 1.125.57 1.58.706-.168-.222-.31-.482-.42-.794-.08-.23-.115-.44-.115-.64 0-.683.41-1.198.752-1.63.27-.344.51-.644.51-.95 0-.03 0-.058-.006-.086l-.002-.03c0-.094.07-.176.165-.19.105-.016.204.057.22.162.075.502-.245.906-.583 1.333-.424.534-.862 1.087-.576 1.902.185.53.454.883.823 1.117.017.008.03.016.044.027.037.023.07.05.11.07.622.312 1.396.347 1.404.347.054.002.105.027.14.068.035.042.05.096.043.15 0 .016-.04.31-.202.59-.012.037-.033.07-.063.093-.04.057-.084.113-.137.163l-.69.5c-.543.366-1.364.92-2.277 1.674-1.086.9-1.72 2.166-1.56 2.697.027.095.093.223.34.25 1.83.198 2.91-.964 3.862-1.99l.248-.265c.64-.68 1.126-1.507 1.448-2.056.23-.39.326-.552.425-.62.762-.53 1.953-2.127 2.214-4.026.19-1.36-.134-2.552-.956-3.546z"/><path fill="#black" d="M28.302 62.458c.342.04.707.002 1.047-.137.323-.132.558-.35.74-.597l1.06 1.535c-.355.482-.818.96-1.323 1.408l-1.525-2.208zM4.728 61.723c.182.247.416.464.74.598.343.142.713.18 1.06.137L4.96 64.672c-.505-.448-.968-.925-1.323-1.408.22-.32.843-1.184 1.09-1.54zM9.762 74.85c.082-.098.178-.19.294-.287l.288-.236c.38-.307.866-.71 1.18-1.034.78.345 1.437.71 1.87 1.195.326.367.37.843.127 1.112-.05.057-.144.14-.205.198l-.52.53h-.31c-1.54.014-2.596-.527-2.808-1.043-.055-.135.012-.317.085-.434zM24.477 74.33l.284.232c.118.096.215.19.296.288.072.118.113.347.058.48-.21.517-1.267 1.058-2.807 1.045h-.31l-.495-.577c-.062-.058-.178-.15-.233-.204-.185-.177-.2-.745.127-1.112.433-.484 1.088-.85 1.87-1.196.314.327.83.737 1.21 1.045zM5.245 58.504z"/><path fill="#black" d="M10.368 72.284l-.17-.066c-3.558-1.408-6.51-3.29-7.896-5.034-1.535-1.93-1.304-3.482-.84-4.444l.48-1.03.46-.96c-.036.485.03 1.073.322 1.765.73 1.745 3.188 3.61 5.07 4.676.81.46 1.615.83 2.394 1.187 2.147.983 3.843 1.76 3.843 3.68v2.27c0 .093-.003.177-.01.257-.065-.15-.15-.295-.26-.418-.745-.835-1.97-1.32-3.392-1.882zm-3.526-4.738l.114-.212c-.27-.167-.533-.338-.792-.526-.04.066-.083.158-.117.226.064.045.13.09.193.136l-.81 1.695-.197-.112c-.036.066-.073.152-.108.22.434.302.88.564 1.333.822.13-.166.25-.326.383-.49l.014-.027-.195-.186c-.098.112-.224.256-.34.316-.145-.052-.397-.19-.518-.315 0-.142.6-1.28.79-1.685.064.008.186.097.25.138zm-2.077.146c.104-.195.21-.39.313-.586l-.167-.145c-.035.053-.07.105-.107.156-.032.016-.3-.21-.356-.26l.373-.723c.12.097.38.276.437.4.04.087-.075.27-.09.374.014.06.146.108.195.144.088-.19.193-.397.275-.59-.403-.31-.8-.63-1.193-.954-.04.068-.078.137-.117.205.058.055.116.107.175.16-.304.588-.536 1.066-.844 1.647-.06-.044-.118-.09-.176-.133-.038.07-.074.132-.11.2.387.357.77.68 1.198.998l.35-.507.008-.023-.186-.188c-.038.06-.227.306-.272.31-.084.004-.414-.3-.48-.397.013-.128.277-.576.352-.718.107.087.265.187.333.293-.015.062-.047.142-.08.207.058.044.114.087.17.132zm7.034 2.1c-.58-.323-1.2-.583-1.798-.864l-.304.576c.08.045.162.09.242.137.08-.107.158-.215.236-.323.112-.013.3.084.435.14-.252.564-.532 1.172-.787 1.74-.09-.037-.178-.07-.268-.105l-.1.207.935.41.094-.21c-.088-.042-.178-.085-.267-.13.258-.566.542-1.174.797-1.738.134.062.31.16.362.257l-.13.352c.022.045.2.094.262.124l.29-.574zm-2.08-.986l-.755-.38-.1.2.256.145c-.27.577-.687 1.88-1.277 1.493-.417-.273-.262-.608-.03-1.096l.415-.853.26.126c.032-.07.066-.138.098-.207-.278-.143-.556-.297-.834-.44L7.648 68l.178.097c-.003.115-.195.446-.255.573-.28.588-.562 1.047-.3 1.46.065.1.167.188.276.27.157.118.37.184.51.197.685.06 1-.868 1.374-1.667l.19.085.1-.207zm-5.745-3.4c.05.04.098.083.147.125l.1-.222c-.2-.19-.397-.38-.595-.57-.033.073-.076.143-.114.214.06.07.144.138.207.203-.19.22-.913 1.007-.972 1.063l-.006.01c-.03-.053.257-1.68.302-1.828l.198.223c.04-.07.083-.138.124-.206-.212-.258-.415-.525-.598-.807-.05.062-.098.126-.145.19.037.063.07.125.108.188-.054.205-.37 2.254-.39 2.477l.202.27c.4-.29 1.29-1.184 1.433-1.33zM32.515 67.184c-1.387 1.745-4.338 3.626-7.898 5.034l-.166.065c-1.42.562-2.648 1.047-3.393 1.88-.11.124-.194.268-.26.42-.006-.08-.01-.164-.01-.256v-2.27c0-1.92 1.695-2.698 3.842-3.68.778-.358 1.583-.727 2.394-1.187 1.882-1.067 4.338-2.932 5.07-4.676.29-.692.357-1.28.322-1.764l.46.96.48 1.03c.463.962.694 2.514-.84 4.444zm-7.355 2.84l-.01-.01c.02-.352.058-.667.1-1.02l.018-.015c.134.288.242.525.384.81-.156.077-.336.163-.492.233zm1.87-.246c.014.09.085.29.05.365-.04.078-.563.354-.66.357-.115-.215-.195-.466-.305-.684.124-.06.484-.254.546-.25l.105.18.22-.11c-.097-.217-.19-.435-.286-.65l-.216.104c.02.07.037.138.056.208-.052.08-.42.256-.528.312-.138-.28-.247-.543-.376-.826.18-.083.464-.266.633-.298.08.05.17.194.227.287.07-.042.14-.086.207-.128.014-.053-.227-.444-.27-.53-.435.23-.976.507-1.414.71-.062.807-.142 1.627-.213 2.426-.063.036-.126.082-.19.116.032.07.06.14.092.21.247-.1.492-.228.743-.33l-.09-.21c-.085.03-.163.07-.246.1.01-.26.02-.59.026-.852.19-.09.413-.193.604-.287.108.212.202.494.315.706-.075.044-.155.075-.23.12l.103.206c.477-.22 1.048-.51 1.518-.75-.058-.19-.114-.383-.17-.574-.086.023-.17.047-.252.072zm1.74-2.772c.055-.04.11-.08.164-.122-.036-.068-.07-.137-.105-.206-.235.158-.47.315-.703.473l.105.207.234-.15c.07.335.167 1.314.182 1.544.01.09.02.182.028.272 0 .003.002.007.004.01-.053.017-.235-.23-.286-.284l-.583-.664c-.084-.102-.185-.2-.267-.305.088-.055.175-.11.264-.163l-.084-.217-.886.503.083.216.19-.095c.112.13.25.264.365.392.272.28.545.563.817.846.117.115.235.236.352.352l.294-.174-.11-1.69c-.018-.232-.028-.515-.057-.744zm2.138.792c-.485.404-1.02-.22-1.153-.818-.063-.283-.062-.575.097-.786l.14-.136c.128-.078.23-.122.333-.118.593.024 1.166 1.37.583 1.858zm.195-1.92c-.315-.303-.692-.35-1.205-.04l-.232.206c-.214.238-.31.524-.33.824-.01.12.01.26.036.385.03.15.128.386.213.508.32.46.686.584 1.212.376.87-.342.94-1.648.306-2.258zM25.35 75.78v3.268c0 .97-1.658 1.316-3.078 1.316h-9.728c-1.42 0-3.08-.345-3.08-1.316V75.85c0-.024.003-.045.004-.07.533.628 1.712 1.037 3.078 1.025h9.726c1.365.01 2.544-.398 3.077-1.025zm-3.198 2.8l.005-.928c.127-.01.27-.02.374.022.25.102.395.47.196.733-.114.153-.316.18-.574.174zm1.06.734c-.095-.177-.24-.56-.43-.625 0-.008-.003-.017-.005-.024.41-.112.672-.737.27-1.056-.316-.25-.97-.19-1.526-.184-.002.073-.007.146-.01.218v.006c.076.002.152.008.23.01v1.855l-.225.017-.007.218v.006h.89c0-.075.004-.15.005-.224l-.258-.01.006-.712c.1-.002.215-.015.293.017.22.093.35.738.534.924.042.04.49.008.58.007l.005-.23-.218-.016c-.07-.034-.094-.127-.13-.196zm-5.398-.096c-.05.198-.21.284-.425.32-.104.02-.266.005-.304-.05-.033-.037-.024-.127-.022-.196 0-.102-.015-.568.017-.625.403-.007.845.113.734.55zm-.74-1.573c.26-.013.46.01.568.16.044.062.082.168.063.27-.05.296-.286.39-.636.368 0-.266.003-.53.005-.798zm.643.867h-.012v-.022c.41-.167.62-.702.15-.965-.318-.177-.98-.102-1.44-.097v.224c.08 0 .16.002.24.005v1.865c-.08.006-.16.01-.24.018l-.006.218c.53.002 1.182.07 1.525-.132.242-.143.465-.515.234-.843-.122-.176-.247-.183-.453-.27zm-3.04.07l.005-.93c.126-.01.27-.02.373.022.25.102.395.47.195.733-.113.153-.316.18-.573.174zm1.06.732c-.095-.177-.24-.56-.43-.625 0-.008-.003-.017-.005-.024.41-.112.67-.737.27-1.056-.316-.25-.97-.19-1.527-.184l-.01.218v.006c.076.002.152.008.228.01v1.855l-.223.017-.006.218v.006h.89c0-.075.003-.15.005-.224l-.26-.01.007-.712c.098-.002.214-.015.292.017.22.093.348.738.533.924.042.04.488.008.58.007l.005-.23-.218-.016c-.07-.034-.095-.127-.132-.196zm-3.596-.447l.323-.957.023.005.31.952h-.655zm.57-1.47c-.084-.022-.258-.015-.334.007l-.792 2.105c-.046.02-.142.022-.206.02v.225h.82v-.23c-.088 0-.176-.003-.264-.005l.126-.413.792-.01c.064.107.128.29.15.423-.083.004-.166.008-.247.01v.225h.895v-.23c-.07 0-.138-.003-.207-.005l-.734-2.122zm7.256 2.16c-.612.1-.854-.68-.73-1.263.06-.274.18-.525.414-.625.062-.017.123-.03.184-.047.15-.002.264.013.355.07.534.32.513 1.74-.224 1.863zm-.127-2.17c-.1.02-.2.04-.3.058-.293.094-.497.293-.64.54-.06.1-.1.228-.128.35-.033.144-.033.367-.005.516.103.557.39.85.958.94.938.15 1.536-.905 1.205-1.754-.165-.422-.492-.656-1.09-.65zM33.904 40.75v.193c0 .106.008.192.008.192H.917S.91 41.05.91 40.943c0-.107.007-.193.007-.193h32.987zm-.007 0V28.148H17.405h.008-16.5V40.75m14.044-4.36c.19 0 .343.154.343.344s-.153.344-.343.344c-.19 0-.344-.154-.344-.344s.153-.344.344-.344zm-2.465.8c.166-.092.375-.03.466.134.093.166.034.375-.133.467-.165.094-.374.034-.467-.133-.09-.165-.032-.374.134-.466zm1.29-.358c.098 0 .18.082.18.18 0 .1-.082.178-.18.178-.1 0-.18-.08-.18-.18 0-.096.08-.178.18-.178zm2.38-.413c.1 0 .18.08.18.18 0 .097-.08.178-.18.178-.1 0-.18-.08-.18-.18 0-.098.08-.18.18-.18zm3.983.314c0 .19-.154.344-.344.344-.188 0-.342-.154-.342-.344s.153-.344.343-.344c.19 0 .345.154.345.344zm2.252.924c-.092.167-.3.227-.467.134-.166-.092-.225-.3-.133-.467.093-.166.302-.226.468-.133.166.09.225.3.132.466zm-1.24-.647c0 .1-.082.18-.18.18-.1 0-.18-.08-.18-.18 0-.097.08-.178.18-.178.098 0 .18.082.18.18zm-2.383-.41c0 .098-.08.18-.18.18-.098 0-.178-.082-.178-.18 0-.1.08-.18.178-.18.1 0 .18.08.18.18zm-1.4-4.253c.19 0 .348.156.348.35 0 .19-.156.347-.35.347-.192 0-.35-.155-.35-.348 0-.193.158-.35.35-.35zm0-.974c.19 0 .348.156.348.35 0 .19-.156.347-.35.347-.192 0-.35-.156-.35-.348 0-.193.158-.35.35-.35zm0-.977c.19 0 .348.157.348.35s-.156.348-.35.348c-.192 0-.35-.155-.35-.348s.158-.35.35-.35zm-1.686.09c.192 0 .35.156.35.35s-.157.347-.35.347-.348-.155-.348-.348.155-.35.348-.35zm-1.142-.375c.192 0 .348.156.348.35 0 .19-.156.347-.348.347-.193 0-.35-.156-.35-.348 0-.194.157-.35.35-.35zm-1.18-.258c.19 0 .348.157.348.35 0 .19-.156.348-.35.348-.192 0-.348-.156-.348-.35 0-.19.156-.348.35-.348zm-1.2.166c.193 0 .35.156.35.35s-.157.347-.35.347c-.192 0-.35-.155-.35-.348s.158-.35.35-.35zm-1.038.65c.193 0 .35.156.35.35 0 .19-.157.348-.35.348s-.348-.156-.348-.35c0-.192.155-.348.348-.348zm-.602 1.057c.192 0 .35.155.35.348s-.157.35-.35.35-.348-.157-.348-.35.155-.348.348-.348zm.012 1.227c.193 0 .348.155.348.348 0 .193-.155.35-.348.35s-.35-.157-.35-.35c0-.193.157-.348.35-.348zm.432 1.13c.192 0 .35.157.35.35 0 .192-.157.348-.35.348-.193 0-.35-.156-.35-.35.002-.19.157-.347.35-.347zm8.456-3.247c0 .193-.156.348-.35.348s-.347-.155-.347-.348.154-.35.347-.35.35.157.35.35zm1.143-.376c0 .19-.158.347-.35.347-.192 0-.348-.156-.348-.348 0-.194.156-.35.35-.35.19 0 .347.156.347.35zm1.18-.26c0 .193-.157.35-.35.35s-.347-.156-.347-.35c0-.19.156-.348.348-.348s.35.157.35.35zm1.198.167c0 .193-.157.348-.348.348-.193 0-.35-.155-.35-.348s.157-.35.35-.35c.19 0 .348.157.348.35zm1.04.65c0 .192-.158.35-.35.35s-.35-.157-.35-.35c0-.193.156-.35.35-.35s.35.157.35.35zm.6 1.056c0 .193-.156.35-.35.35-.192 0-.348-.157-.348-.35s.156-.348.35-.348c.192 0 .348.155.348.348zm-.012 1.226c0 .192-.156.348-.35.348-.19 0-.347-.156-.347-.35 0-.19.155-.347.347-.347.193.002.35.157.35.35zm-.432 1.13c0 .194-.156.35-.35.35s-.348-.156-.348-.35c0-.19.156-.347.35-.347s.348.156.348.348zm-3.424 5.557c.015-.026.294-.145.294-.145.732-.34.997-.762.997-1.07 0-.608-1.99-1.29-4.658-1.29-2.67 0-4.66.68-4.66 1.29 0 .31.286.735 1.036 1.077 0 0 .31.136.304.147-.02.046-.268-.02-.354-.052-.827-.28-1.374-.673-1.374-1.173 0-1.088 2.6-1.675 5.048-1.675 2.446 0 5.044.587 5.044 1.675 0 .496-.538.888-1.356 1.167 0 0-.348.093-.32.047zm-3.347-3.99c-1.54 0-3.005.218-4.023.6-.47.177-.763.35-.987.493-.054.034-.124.04-.183.014-.1-.044-.115-.127-.135-.243-.042-.233-.153-.844-.536-1.57-.04-.075.048-.157.113-.075.23.29.712 1.118.765 1.38 0 .004.006.02.006.02l.023-.01c.2-.115.46-.242.797-.37 1.06-.398 2.574-.626 4.158-.626h.018c1.586 0 3.1.227 4.16.625.34.127.597.254.798.37.004 0 .023.01.023.01l.007-.02c.053-.262.535-1.09.765-1.38.066-.083.154 0 .115.075-.383.726-.496 1.336-.537 1.57-.02.116-.035.2-.135.244-.06.026-.13.02-.183-.014-.224-.145-.517-.316-.987-.493-1.018-.382-2.484-.6-4.025-.6h-.017zm.76-6.526c0 .107-.086.194-.193.194h-.364v.384c0 .106-.087.193-.193.193s-.193-.086-.193-.192v-.384h-.366c-.107 0-.193-.087-.193-.193 0-.106.087-.192.194-.192h.366v-.355c0-.106.086-.193.193-.193s.193.086.193.193v.355h.364c.107 0 .193.086.193.193zm-.78 8.55c1.396 0 4.037.225 4.037 1.07s-2.64 1.07-4.037 1.07c-1.397 0-4.04-.223-4.04-1.07s2.643-1.07 4.04-1.07zm6.37-5.393c0 1.07-.858 2.238-1.225 2.736l-.005.007-.01.024v-.01c-.168.34-.606.626-1.16.446-.284-.09-.577-.147-.747-.474-.09-.17-.153-.394.034-.635.048-.06.192-.137.257-.104.05.026.09.135.026.208-.09.103-.042.292.115.375.11.057.23 0 .244-.045.006-.02-.204-.157-.017-.312.142-.11.514-.473.007-.71-.396-.188-.703.348-.74.423-.04.074-.083.045-.067-.03.078-.385.404-.507.488-.933.062-.316-.163-.573-.28-.683-.042-.037-.115-.05-.178-.024-.157.06-.44.21-.502.514-.087.424.167.664.09 1.048-.015.075-.067.086-.073.002-.006-.083-.083-.696-.52-.677-.56.025-.356.502-.268.66.112.216-.126.257-.134.27-.02.045.072.16.206.146.177-.017.293-.173.25-.303-.03-.09.047-.176.104-.18.072-.007.176.12.196.196.078.293-.066.475-.214.6-.284.235-.72.205-.95.18-.786-.082-.836-.56-.836-.56.163.07.527.198.527.198.013.006.025.007.04.007.066 0 .122-.054.122-.12v-.755c0-.067-.055-.12-.122-.12 0 0-.032.002-.046.007l-.54.214.154-.433c.006-.014.01-.03.01-.047 0-.068-.055-.122-.123-.122h-.903c-.067 0-.122.055-.122.123 0 .017.003.033.01.048l.152.434-.54-.214c-.012-.005-.044-.008-.044-.008-.067 0-.122.054-.122.12v.755c0 .067.054.12.122.12.013 0 .026 0 .038-.005 0 0 .363-.13.526-.2 0 0-.05.48-.835.563-.23.024-.666.054-.95-.182-.148-.124-.293-.306-.214-.6.02-.074.124-.202.196-.195.057.004.133.09.103.18-.042.13.074.287.25.302.135.013.226-.1.206-.145-.007-.014-.247-.055-.134-.272.088-.156.292-.634-.268-.66-.438-.018-.514.595-.52.678-.005.085-.06.074-.073 0-.077-.385.177-.625.09-1.05-.062-.303-.346-.452-.503-.513-.062-.025-.137-.013-.177.024-.118.11-.343.367-.28.684.084.426.41.548.49.933.014.075-.03.104-.07.03-.036-.075-.343-.61-.74-.424-.505.238-.134.6.01.71.185.156-.025.293-.02.313.015.046.134.102.246.044.158-.083.204-.272.115-.375-.062-.073-.025-.18.026-.208.065-.033.21.043.258.105.187.24.123.464.034.635-.17.327-.463.383-.746.474-.555.18-.992-.106-1.16-.444v.01l-.01-.025-.006-.006c-.367-.5-1.225-1.667-1.225-2.736 0-1.052.927-1.846 2.155-1.846.54 0 1.047.186 1.54.365.538.197 1.05.373 1.573.32v-1.08c0-.107.086-.193.193-.193.106 0 .193.086.193.193v2.84h1.37v-2.84c0-.107.085-.193.192-.193.106 0 .193.086.193.193v1.08c.524.053 1.035-.124 1.573-.32.492-.18 1-.365 1.54-.365 1.227 0 2.154.793 2.154 1.845zm-6.37 7.147c2.41 0 3.65-.48 3.65-.683 0-.204-1.24-.683-3.65-.683s-3.653.48-3.653.684c0 .205 1.243.684 3.653.684zM16.31 31.86c-.12.01-.238.012-.355.003.13.054.248.12.356.2v-.203zm6.842 1.623c.11-.287.184-.58.184-.856 0-.833-.76-1.46-1.77-1.46-.47 0-.924.166-1.406.342-.192.068-.386.14-.583.2.056-.003.106-.014.163-.013.646.013 1.27.25 1.59.586.708-.008 1.23.2 1.554.62.14.184.222.385.268.58zm-4.697-1.623v.203c.108-.08.227-.146.356-.2-.116.01-.236.007-.355-.003zm4.122 1.28c-.254-.332-.695-.49-1.312-.47-.062.003-.12-.025-.16-.075-.183-.24-.726-.5-1.373-.512-.316-.006-.9.05-1.263.488-.004.006-.01.005-.016.01v.493c.146-.15.34-.304.568-.416.063-.032.24-.096.39-.106.13-.01.24.03.243.075.002.047-.3.164-.562.364-.198.15-.37.346-.473.48.166-.034.264.043.264.134.107-.108.28-.204.558-.216.047 0 .09.007.133.012.004-.027.002-.05.008-.077.108-.525.65-.778.896-.846.17-.047.32.065.32.065.206.15.518.502.518.944 0 .06-.005.12-.018.183-.005.025-.014.045-.02.07.04.012.082.023.124.043.358.17.456.41.476.584l.003.07c0 .247-.142.448-.27.582.002.008.007.014.01.022.01.036.014.07.014.106 0 .122-.057.24-.157.327.026.007.046.002.07.006.208-.066.468-.243.607-.716.24-.814-.685-1.46-.59-1.596.047-.066.18-.003.18-.003.46.23.9.706.84 1.39.06-.093.123-.193.184-.297 0-.006 0-.012.002-.018.074-.233.083-.74-.195-1.1zm-7.388-1.43c-.198-.062-.393-.13-.584-.2-.482-.176-.937-.343-1.407-.343-1.01 0-1.77.627-1.77 1.46 0 .275.076.567.185.853.046-.194.128-.394.268-.576.322-.42.846-.63 1.556-.62.318-.334.94-.574 1.586-.587.056 0 .107.01.163.012zm2.523 4.832c0 .19-.153.342-.343.342-.19 0-.342-.153-.342-.342 0-.188.153-.342.342-.342.19 0 .343.153.343.342zM16.31 32.58c-.003-.004-.01-.003-.014-.008-.363-.44-.947-.494-1.264-.488-.647.013-1.19.273-1.373.512-.038.05-.098.078-.16.076-.617-.02-1.06.137-1.313.468-.277.362-.268.868-.196 1.102.002.006 0 .012.002.018.062.104.123.202.184.295-.06-.684.38-1.16.838-1.39 0 0 .134-.062.18.004.097.135-.827.78-.588 1.595.146.498.428.672.64.73l.037-.02c-.1-.086-.157-.204-.157-.326 0-.036.004-.072.014-.107.002-.008.007-.014.01-.023-.128-.134-.27-.335-.27-.58 0-.024 0-.048.004-.072.02-.173.117-.415.475-.584.04-.02.083-.03.125-.044-.006-.024-.016-.044-.02-.07-.013-.063-.018-.123-.018-.183 0-.44.31-.793.518-.944 0 0 .148-.112.32-.065.245.068.79.32.896.846.007.028.005.05.01.077.043-.004.085-.012.133-.01.278.012.45.107.557.215 0-.09.1-.168.265-.133-.102-.135-.275-.33-.474-.482-.258-.2-.562-.316-.56-.364 0-.044.113-.083.243-.074.15.01.325.075.39.106.228.11.42.265.566.416v-.494z"/><path fill="#black" d="M34.915 27.244H0v17.633c0 5.173 1.443 9.66 3.483 13.427-.535.216-1.092.68-1.61 1.69l-.657 1.378-.478 1.025c-.19.395-.42 1.038-.42 1.843 0 1.15.457 2.31 1.356 3.442 1.47 1.85 4.55 3.823 8.23 5.278 0 0 .298.12.552.22l-.624.534-.27.218-.233.208c-.022.02-.095.098-.095.098-.398.436-.568.918-.568 1.613v3.198c0 1.325 1.45 2.116 3.88 2.116h9.727c2.43 0 3.88-.79 3.88-2.116V75.85c0-.686-.175-1.182-.566-1.606l-.067-.083c-.122-.104-.2-.166-.262-.207h.013l-.907-.77.552-.22c3.682-1.457 6.758-3.43 8.23-5.28.898-1.132 1.355-2.29 1.355-3.44 0-.807-.23-1.45-.422-1.85l-.473-1.013-.653-1.367c-.387-.757-.928-1.303-1.58-1.61 2.073-3.79 3.544-8.31 3.544-13.524V27.243zM32.59 60.19l.65 1.36.474 1.015c.175.362.383.946.383 1.676 0 1.06-.427 2.133-1.27 3.193-1.428 1.797-4.443 3.725-8.063 5.156l-1.17.467 1.415 1.202c.023.015.212.17.217.174 0 .004.057.07.057.07.326.355.467.767.467 1.346v3.197c0 1.075-1.3 1.716-3.478 1.716h-9.728c-2.18 0-3.48-.64-3.48-1.716V75.85c0-.594.135-.983.463-1.343 0 0 .07-.074.07-.076.003 0 .224-.195.224-.195l.272-.22 1.128-.96-1.167-.466c-3.62-1.432-6.636-3.36-8.065-5.157-.842-1.06-1.27-2.134-1.27-3.193 0-.73.208-1.31.38-1.67l.48-1.027.654-1.37c.477-.934.967-1.34 1.442-1.52.064.115.125.233.19.347-.29.158-.555.394-.742.703-.223.368-.335.792-.335 1.26 0 .426.098.88.29 1.354l.278.686 1.428-2.066c.04.127.08.264.08.264.096.32.37.593.754.75.065.027.133.042.2.06.258.355.518.702.783 1.04-.548.79-1.327 1.908-1.327 1.908l.292.233c1.116.893 2.136 1.492 2.422 1.654.81.458 1.6.82 2.365 1.168.717.328 1.418.652 2.033 1.02.47.4.92.762 1.344 1.09.434.52.698 1.143.698 1.936v2.27c0 .757-.236 1.125-.49 1.41l-.598.667h8.13l-.596-.667c-.256-.286-.492-.655-.492-1.41v-2.27c0-.698.196-1.26.533-1.737.555-.423 1.16-.908 1.805-1.46.538-.295 1.133-.57 1.755-.854.77-.354 1.56-.715 2.348-1.162.76-.432 1.643-1.036 2.42-1.657l.292-.234-1.278-1.85c.288-.364.57-.74.85-1.127.028-.01.057-.014.085-.025.383-.156.66-.43.756-.748l.08-.264c.33.48 1.426 2.066 1.426 2.066l.28-.686c.192-.472.29-.927.29-1.352 0-.47-.113-.894-.335-1.26-.173-.285-.408-.507-.673-.666.053-.09.1-.186.153-.278.586.266 1.075.748 1.42 1.427zM6.86 63.38c1.42 1.776 2.9 3.292 4.282 4.553l-.62-.286c-.757-.347-1.54-.705-2.333-1.154-.28-.16-1.277-.744-2.37-1.618.1-.145.597-.857 1.04-1.496zM20.58 76.004h-6.34c.292-.328.592-.783.592-1.677v-2.27c0-.48-.085-.904-.234-1.282 1.416 1.04 2.36 1.586 2.4 1.608l.46.263.462-.263c.038-.02.918-.533 2.254-1.506-.12.352-.188.74-.188 1.18v2.27c0 .892.3 1.348.594 1.677zm3.28-8.155c1.34-1.232 2.77-2.704 4.144-4.416l.995 1.44c-.763.61-1.626 1.2-2.37 1.62-.772.44-1.552.797-2.307 1.143-.157.07-.31.142-.462.212zm3.91-4.756c-1.763 2.21-3.623 4.02-5.26 5.424l-1.91 1.546c-1.68 1.276-2.834 1.947-2.878 1.972l-.265.15-.263-.15c-.045-.026-1.316-.762-3.134-2.164l-1.472-1.19c-1.695-1.434-3.65-3.32-5.493-5.64l-.255-.334c-.167-.214-.333-.428-.497-.65l-.287-.398c-.557-.775-1.093-1.59-1.603-2.447l-.215-.358c-.057-.1-.11-.202-.166-.302l-.2-.367C1.84 54.456.4 50.008.4 44.876V27.645h34.115v17.233c0 5.16-1.46 9.63-3.517 13.38l-.2.366c-.048.082-.09.168-.14.25l-.216.358c-.17.287-.34.57-.516.847l-.096.146c-.312.485-.634.954-.96 1.41l-.31.433c-.177.238-.356.466-.534.696l-.257.332zM7.278 11.768c-.125.088-.195.225-.242.217-.09-.017-.258-.292-.25-.35.008-.058.806-.354.866-.318.06.035-.073.328-.073.328s-.178.036-.302.123zM10.53 6.35l.09-.126c.11.2.4.56.41.642.005.054-.032.314-.093.417-.033.056-.108-.008-.108-.008s-.113-.614-.067-.484c.022.066-.125-.257-.234-.44zM16.707 3.015c.017-.167.025-.458.025-.458s.358.66.383.76c.025.1-.223.164-.275.215-.075.075-.15.284-.15.284l-.133-.15s.133-.485.15-.65zM11.755 5.115c.133.092.767.258.85.284.017.065.05.197-.06.258-.166.09-.27-.184-.466-.31-.173-.11-.342-.166-.342-.166s-.083-.042-.075-.075M23.438 4.653c-.113.12-.388.487-.38.538.008.05.15-.024.15-.024s.5-.417.575-.5c.076-.084-.345-.013-.345-.013zM50.63 65.85h131.324v.687H50.63zM175.763 42.057c5.55 0 8.978 4.423 8.978 8.928 0 4.993-4.336 9.11-9.24 9.11-5.073 0-8.72-4.118-8.72-9.11-.002-4.765 4.212-8.928 8.983-8.928m.914 16.918c3.25 0 5.287-3.215 5.287-6.293 0-4.898-2.82-9.497-7.027-9.497-3.342 0-5.378 2.95-5.378 6.372 0 4.51 2.596 9.418 7.117 9.418zM158.63 42.447h-3.713c-1.6 0-2.817 0-3.815-.04-.912-.05-1.128-.263-1.25-.438h-.483c-.09.214-1.26 3.34-1.306 3.512l.568.344c.558-1.518 1.218-2.253 4.29-2.253.263 0 1.256 0 2.473.132.175 2.206.214 4.377.214 6.59 0 1.39-.04 6.586-.215 7.713-.086.52-.346.766-1.78 1.032-.605.083-1 .124-1.344.168l.135.7c.46-.04 1.02-.07 1.712-.113.695-.042 1.542-.073 2.796-.073.48 0 1.257-.03 1.997.017.735.04 1.387.042 2.3.082l.084-.723c-.177 0-.43-.044-.824-.1-.484-.063-1.26-.213-1.56-.52-.562-.65-.562-5.32-.562-6.584 0-1.083.173-6.55.173-7.803 0-.523.174-.523 1.73-.523l.057.008c.697-.028.892-.008 1.15-.008 3.083 0 3.17.735 3.736 2.253l.56-.344c-.043-.173-.65-3.3-.735-3.514h-.478c-.134.175-.348.39-1.257.437-1.188.048-2.59.04-4.006.04h-.648zm-28.572-.04c-.697.04-1.215.04-2.083.04-.437 0-.87 0-1.305-.04-.43-.048-.495-.04-.917-.088v.737c2.514.475 2.74.86 2.654 5.893l-.01 3.083c0 1.168-.078 4.643-.21 5.64-.128 1.128-.606 1.212-1.256 1.34-.345.09-.735.178-.992.22v.648c.647 0 1.292-.04 1.944-.082.652-.047 1.526-.09 2.172-.09.65 0 1.346.042 1.958.09.564 0 .954.042 1.21.083v-.737c-3.423-.604-3.423-1.083-3.382-3.99v-7.328l.043-1.388c-.007-.008-.002.02 12.76 13.527h.89c-.084-1.425-.084-5.115-.084-6.72 0-2.293-.02-8.225.083-8.97.148-1.124 1.65-1.223 2.476-1.223v-.65c-1.864 0-2.89.047-3.71-.04-.782-.085-1.346-.13-1.822-.13-.39 0-.825-.045-1.08 0l-.134.648c2.907.18 2.835.436 2.835 6.98 0 .782-.024 4.61-.024 5.345l-12.018-12.796zm-15.706-.35c5.55 0 8.982 4.423 8.982 8.928 0 4.993-4.336 9.11-9.244 9.11-5.074 0-8.715-4.118-8.715-9.11 0-4.765 4.21-8.928 8.977-8.928zm.91 16.918c3.25 0 5.287-3.215 5.287-6.293 0-4.898-2.815-9.497-7.02-9.497-3.34 0-5.38 2.95-5.38 6.372 0 4.51 2.6 9.418 7.11 9.418zM86.81 42.318c.563.04 1.084.088 1.65.088.52.04 1.08.04 1.603.04.387 0 1.387-.087 2.38-.17 1-.09 1.74-.09 2.35-.09 3.685 0 6.027 1.995 6.027 4.682 0 2.428-2.216 3.91-3.947 4.338 3.6 5.21 4.248 5.988 5.637 7.288.17.175 1.26 1.176 2.603 1.256l-.042.655c-2.993 0-4.468-1.174-5.25-1.78-2.643-2.084-5.245-6.202-5.72-7.068-.743 0-1.044 0-2.304-.088v2.514c0 1.13-.043 3.645.306 4.335.217.39 1.517.783 2.387 1.044l.04.65c-1.04-.174-2.69-.306-3.82-.306-.605 0-3.292.173-3.86.22l-.13-.526c.264-.038 1.823-.388 2.218-1.12.3-.654.26-4.298.26-5.467v-4.167c0-5.38-.26-5.463-2.434-5.59l.046-.74zm5.03 8.153c.517.092 1.35.092 1.865.092.65 0 4.292 0 4.292-3.47 0-1.61-1.168-3.947-4.248-3.947-1.823 0-1.823.212-1.866 3.163l-.045 4.163zm-17.09-8.413c5.554 0 8.98 4.423 8.98 8.928 0 4.993-4.338 9.11-9.238 9.11-5.077 0-8.716-4.118-8.716-9.11 0-4.765 4.204-8.928 8.975-8.928zm.912 16.918c3.252 0 5.29-3.215 5.29-6.293 0-4.898-2.816-9.497-7.02-9.497-3.343 0-5.382 2.95-5.382 6.372 0 4.51 2.602 9.418 7.112 9.418zm-18.45-16.528h-3.714c-1.6 0-2.818 0-3.814-.04-.917-.05-1.13-.263-1.256-.438h-.48c-.086.214-1.26 3.34-1.3 3.512l.56.344c.57-1.518 1.22-2.253 4.297-2.253.262 0 1.255 0 2.47.132.175 2.206.22 4.377.22 6.59 0 1.39-.044 6.586-.22 7.713-.085.52-.344.766-1.776 1.032-.608.083-.997.124-1.346.168l.13.7c.462-.04 1.023-.07 1.712-.113.698-.042 1.54-.073 2.8-.073.477 0 1.26-.03 1.992.017.74.04 1.39.042 2.295.082l.096-.723c-.178 0-.434-.044-.825-.1-.487-.063-1.26-.213-1.567-.52-.56-.65-.56-5.32-.56-6.584 0-1.083.173-6.55.173-7.803 0-.523.176-.523 1.734-.523l.053.008c.7-.028.896-.008 1.156-.008 3.076 0 3.168.735 3.728 2.253l.563-.344c-.04-.173-.645-3.3-.735-3.514h-.478c-.125.175-.344.39-1.25.437-1.19.048-2.596.04-4.01.04h-.648zm112.054-15.304c-1.114.113-1.377.113-2.624.113l-1.317-.023-1.362-.035-.443.03-.354.038-.005.054v.27l.066.004c.342.02.663.056.806.256.197.306.222.62.222 3.355 0 1.283-.118 2.736-.155 2.95-.07.305-.495.41-.8.463l-.054.008-.024.41.07-.006c.768-.055 1.603-.076 1.818-.076l.675.02 1.25.06v-.451l-.086-.005c-.894-.09-1.19-.243-1.288-.357-.09-.112-.125-.575-.125-1.066 0-.144.004-.29.004-.428 0-.002.034-1.15.04-1.427l.638-.027c.696 0 1.568.154 1.79.256.127.034.232.29.277.628l.01.06h.388l.005-.06c.065-.8.054-1.593.043-2.194V29.9h-.41l-.01.055c-.095.567-.136.802-1.645.802-.457 0-.593-.017-1.03-.065h-.034c-.01-.14-.014-.288-.014-.448 0-.175.004-.357.01-.552 0 0 .02-1.608.027-1.856.435-.052.814-.07.93-.07.84 0 1.578.15 1.875.39.238.183.34.488.406.758l.01.052.425-.025-.003-.065c-.01-.123.016-.548.036-.922l.043-.822-.08.013zm-11.76-.055c2.55 0 4.082 2.02 4.082 3.98 0 2.202-1.923 4.062-4.193 4.062-2.22 0-3.97-1.782-3.97-4.06 0-2.12 1.91-3.982 4.08-3.982zm.41 7.415c1.425 0 2.3-1.4 2.3-2.692 0-2.017-1.148-4.103-3.08-4.103-1.535 0-2.337 1.376-2.337 2.732 0 1.996 1.166 4.063 3.117 4.063zm-14.904-7.257v.383l.09.01c.386.016.923.036.923.346 0 .096-.172.554-1.63 2.67-.626-.757-2.023-2.55-2.023-2.78 0-.09 0-.19.885-.204h.06v-.455l-.732.016-1.422.023-1.54-.023v.423h.062c.387 0 .615.046.798.177.473.327 2.136 2.454 2.192 2.55.005 0 .67.85.73.937.043.548.078 1.162.078 1.915 0 1.16 0 1.4-1.082 1.435l-.057.008-.028.386.06.003c.16.012.667-.02 1.142-.062l.823-.052.625.035.127.003.85.043v-.39l-.063-.01c-1.063-.09-1.07-.23-1.087-.434l-.005-.08c-.02-.476-.037-1.01-.037-1.588 0-.436.012-.903.025-1.387l1.522-2.323c.48-.745.75-1.15 1.788-1.168l.062-.004v-.446h-.054c-.142-.014-.558.005-.927.028l-.496.023-.593-.035-.416-.022-.582-.02h-.067v.068zm-6.863-.215h-.245l-.015.025c-.044.05-.112.15-.516.163l-1.557.016h-2.183l-1.702-.016c-.402-.014-.482-.112-.514-.163l-.02-.024h-.285l-.02.04c-.033.08-.56 1.465-.583 1.552l-.014.042.362.216.024-.07c.244-.645.51-.946 1.862-.946.433 0 .796.028 1.046.05.078 1.047.093 2.067.093 2.828 0 .737-.026 2.906-.1 3.375-.026.167-.075.276-.74.396 0-.003-.48.06-.48.06l-.186.025.084.43.64-.044.18-.008 1.25-.033h.198l.686.006.526.02.567.022.005-.06.042-.386-.345-.035-.082-.014c-.33-.04-.57-.118-.664-.21-.086-.09-.235-.596-.235-2.838l.038-1.6.037-1.82c0-.15 0-.162.71-.162h.028l.422-.002.093.002c1.257 0 1.353.262 1.568.838l.065.178.36-.216-.084-.408c-.126-.61-.23-1.123-.256-1.185l-.02-.04h-.04zm-12.954.236v.386l.062.004c1.014.032 1.18.242 1.26.453.142.337.168 2.54.168 3.356v.137c0 .67.006 2.232-.202 2.594-.07.114-.335.326-1.323.4l-.06.008v.392l1.223-.04h1.13l1.87.06-.01-.075-.018-.362h-.062c-.816 0-1.083-.014-1.18-.334-.05-.17-.074-.908-.074-2.186 0-3.025.018-3.824.185-4.116.205-.336.926-.292 1.14-.27l.07.003v-.458h-.918l-1.292.038-.86-.023-.37-.016-.673-.02h-.067v.066zm-6.867 2.076c0 1.315 1.128 1.782 1.947 2.114l.073.027c1.41.58 2.052.834 2.052 1.81 0 .575-.43 1.19-1.367 1.19-.832 0-1.44-.357-1.803-.648-.438-.374-.565-.925-.597-1.106l-.014-.05h-.468l.023.084c.26.854.35 1.238.33 2.205v.06l.38.026.012-.046c.02-.04.086-.185.175-.185.093 0 .363.068.476.102l.058.008c-.006 0 .107.035.107.035.2.06.462.14.952.14 1.894 0 2.91-1.15 2.91-2.23 0-1.522-1.495-2.12-2.487-2.508-.948-.363-1.657-.7-1.657-1.468 0-.76.583-1.272 1.448-1.272.776 0 1.33.44 1.465.59.313.294.39.634.467.965l.007.05.054.017h.346l-.103-1.016c0-.367.075-.76.115-.914l.018-.07-.352-.052s-.208.14-.243.168c-.71-.187-1.063-.242-1.56-.242-1.624-.003-2.76.91-2.76 2.214zm-5.466-2.202c1.627 0 2.758.87 2.758 2.118 0 1.014-.876 1.702-1.723 1.94 1.558 2.206 1.85 2.547 2.462 3.113.02.022.512.498 1.12.534l.07.004-.03.41h-.06c-1.35 0-2.016-.506-2.39-.79-1.177-.914-2.332-2.708-2.554-3.093-.066 0-.817-.025-.93-.03V32.734c0 .524.01 1.286.134 1.515.08.147.692.328 1.024.428l.043.01.025.412-.076-.014c-.467-.08-1.196-.133-1.7-.133-.262 0-1.453.076-1.718.098l-.057.005-.09-.352.067-.014c.165-.026.797-.18.945-.456.122-.246.11-1.61.11-2.192v-2.007c0-2.32-.096-2.335-1.028-2.383l-.066-.005.03-.456.118.012s.675.028.688.033l.71.018c.172 0 .625-.04 1.062-.076l1.052-.037zm-1.254 3.644c.228.026.563.03.77.03.69 0 1.857-.19 1.857-1.458 0-.668-.487-1.668-1.835-1.668-.75 0-.75.03-.776 1.325l-.016 1.77zm-4.59-3.604c-.95.053-2.447.076-3.445.076-.605 0-2.113-.04-2.68-.058h-.06v.39l.05.006c.66.11.704.13.75.28.067.18.15.886.15 3.232 0 1.007-.076 2.592-.176 3.127-.05.26-.38.346-.892.4l-.065.01.054.433.06-.008c1.048-.113 2.305-.113 3.06-.113l3.103.038.024-.045c.165-.26.41-.65.58-1.893l.015-.07-.37-.03-.02.054c-.26.706-.785 1.437-2.673 1.437-.665 0-.95-.088-1.32-.23-.033-.224-.07-.543-.09-1.494l-.016-1.428c.498-.067.96-.07 1.156-.07 1.517 0 1.628.126 1.84 1.055l.012.05h.366v-.066c-.02-1.025-.02-1.267.037-2.333l.003-.066h-.406l-.012.05c-.15.567-.272.677-.49.71-1.113.146-2.19.1-2.455.076 0-.098-.033-1.02-.033-1.02 0-.496.042-1.263.127-1.804.408-.074 1.168-.146 1.497-.146.854 0 1.367.106 1.59.35.183.196.188.486.17.815l-.003.063.437.05v-.07c0-.083.053-.39.09-.618l.048-.284c.062-.41.062-.603.062-.79v-.07l-.074.004zm-16.793.09l.02.338.052.005c1.043.133 1.086.14 1.93 1.864l1.746 3.558c-.005 0 .01.033.01.033.3.617.746 1.55.896 2.085l.01.05h.387l.014-.047c.263-.77.455-1.31 1.063-2.518l1.884-3.69c.433-.87.624-1.087 1.47-1.26l.053-.012v-.42h-.07c-.48.023-.947.023-1.426 0l-1.483-.038-.003.055-.022.403.067-.003c.39 0 .907.05.907.467 0 .23-.168.613-.277.857l-.032.066c-.383.87-.625 1.344-.884 1.85l-.86 1.767s-.132.275-.2.436c-.845-1.357-2.384-5.003-2.395-5.223 0-.087.02-.104.655-.188l.204-.02v-.427l-1.19.008-.644-.008c-.445 0-1.35-.023-1.815-.052l-.078-.01.01.074zm-5.238-.004v.386l.06.004c1.016.032 1.18.242 1.263.453.14.337.168 2.54.168 3.356v.137c0 .67.008 2.232-.204 2.594-.064.114-.327.326-1.328.4l-.056.008v.392l1.225-.04h1.13l1.87.06-.01-.075-.02-.362h-.06c-.816 0-1.082-.014-1.18-.334-.047-.17-.08-.908-.08-2.186 0-3.025.025-3.824.188-4.116.21-.336.926-.292 1.144-.27l.07.003v-.458h-.922l-1.295.038-.857-.023-.365-.016-.677-.02h-.063v.066zm-4.46-.134l-.05.003v.056l-.072.352.073.005c1.497.094 1.264.125 1.304 3.223 0 0 .017 1.87.013 2.078-.107-.106-5.375-5.614-5.375-5.614l-.017-.026-.867.02-.57-.02h-.054l-.524-.04.01.072.006.375.046.01c1.075.2 1.255.32 1.22 2.52L73.65 31.5c0 .498-.054 2.025-.116 2.457-.05.45-.222.48-.505.536-.01 0-.503.104-.503.104v.409l1.812-.08.86.04.61.042.004-.067v-.38l-.053-.008c-1.48-.26-1.477-.424-1.457-1.682l.04-3.214.013-.453c.293.3 5.622 5.82 5.59 5.834l.02.026.507-.01-.006-.072c-.04-.627-.04-2.244-.04-2.947 0-1.047.046-3.49.097-3.794.07-.52.515-.647.948-.647h.065v-.42h-.065c-.837 0-1.26.057-1.623.02l-.245-.03-.58-.03h-.494zm-14.095.075l-.445.01c-.532 0-1.593.017-1.75.04l-.067.01.025.422h.063c.51 0 .68 0 .795.086.16.1.266.99.266 2.172l-.093 2.532c0 1.742 1.116 2.667 3.224 2.667 3.347 0 3.52-1.786 3.58-5.502l.014-1.125.003-.045c.014-.546.025-.77.928-.817l.054-.005.03-.435-.173.007-1.352.034-1.044-.024-.458-.016.003.067v.388h.068c.386 0 .774.02.94.19.247.242.312 1.28.312 1.8v.685c0 2.576-.174 4.137-2.57 4.137-2.19 0-2.19-1.743-2.19-2.58v-1.442c0-2.693.103-2.703 1.3-2.806l.058-.006v-.445l-.06-.008c-.297-.01-.97.003-1.458.005z"/><g><g fill="#black"><path d="M50.494 78.144c.146.645.33 1.067 1.294 1.516.57.252 1.283.424 1.823.424.32 0 1.31-.09 1.31-1.362 0-1.082-.924-1.477-2.114-1.89-1.19-.42-2.192-.96-2.192-2.375 0-1.373 1.137-2.35 2.76-2.35.29 0 1.613.155 1.824.155.133 0 .278-.026.37-.09l.226.053c-.014.09-.053.738-.053.765 0 .12.027.738.027.767v.396h-.28c-.3-1.69-2.085-1.69-2.258-1.69-1.215 0-1.505.86-1.505 1.442 0 .673.262 1.146 1.848 1.702 1.072.398 2.525.938 2.525 2.603 0 .873-.476 2.312-3.014 2.312-.66 0-1.252-.077-1.886-.21-.026 0-.118-.027-.162-.027-.118 0-.13.068-.13.12h-.357c-.04-.713-.12-1.138-.37-2.182l.314-.08zM67.762 80.137c-1.24.343-2.445.37-2.59.37-2.563 0-4.49-1.784-4.49-4.265 0-2.868 2.312-4.242 4.77-4.242.54 0 1.043.065 1.624.29.146.052.41.145.542.145.13 0 .237-.053.358-.105l.17.052c-.054.252-.33 1.507-.382 1.797l-.212-.053c-.065-.554-.078-.727-.264-.912-.185-.212-.964-.753-2.115-.753-2.93 0-2.93 3.027-2.93 3.712 0 3.62 2.615 3.884 3.13 3.884 1.164 0 2.14-.605 2.51-1.744l.302.04c-.012.187-.012.29-.107.622-.023.093-.155.54-.17.622l-.146.54zM74.434 78.564c-.09.238-.318.767-.318.964 0 .488.635.568 1.006.624v.3c-.092 0-.49-.01-.873-.022l-.767-.028c-.16 0-.713 0-.925.014v-.264c.21-.042.542-.11.792-.517.46-.74 2.748-6.355 2.92-6.8.132-.333.21-.573.29-.807h.344c.08.262.16.552.316.988.278.777 1.6 4.19 1.866 4.888.763 2.13.99 2.167 1.517 2.248v.264c-.302-.026-.608-.054-1.16-.054-.82 0-1.442.068-1.853.092v-.3c.344-.057.662-.188.662-.492 0-.182-.646-1.912-.713-2.1-.24-.026-.386-.04-.952-.04-.49 0-1.122 0-1.758.095l-.396.947zm.634-1.586c.354.055.858.122 1.424.122.438 0 .648-.026.86-.055-.355-.977-.725-1.98-1.16-2.867l-1.124 2.8zM84.79 80.178c.57-.172.78-.265.872-.687.093-.354.12-3.383.12-4.055 0-1.72-.014-1.996-.054-2.3-.078-.593-.607-.608-.885-.62l.053-.343c.185 0 .963.01 1.123.01.17 0 .634-.025 1.082-.065.462-.04.91-.078 1.07-.078 2.167 0 3 1.213 3 2.205 0 .978-.768 1.783-1.81 2.126 1.48 2.83 2.497 4.03 3.833 4.138v.342c-1.282.028-3.133.028-5.3-4.32-.356-.01-.463-.01-.792-.052-.013.288-.027.527-.027 1.27 0 .436 0 1.756.173 2.033.17.254.697.372.885.398l-.056.315c-.423-.05-.66-.063-.87-.078-.225-.014-.425-.014-.794-.014-.54 0-.647 0-1.625.093v-.315zm3.118-7.744c-.69 0-.69.175-.726 1.018-.055 1.257-.055 1.41-.042 2.565.2.037.25.052.608.052.633 0 1.996 0 1.996-1.694 0-.473-.238-1.942-1.836-1.942zM97.407 80.096c.925 0 .992-.116.992-3.7 0-3.312-.054-3.38-.28-3.673-.157-.22-.566-.248-.713-.248v-.357c.357.028.675.055 1.35.055.118 0 .49-.027.872-.04.368-.025.764-.042.898-.042 1.742 0 2.482.912 2.482 1.944 0 .793-.425 1.547-1.717 1.823v.025c2.235.29 2.55 1.678 2.55 2.326 0 .937-.597 2.245-3.106 2.245-.146 0-.554-.01-.978-.023-.425-.014-.846-.028-1.004-.028-.832 0-.98.028-1.35.065v-.37zm2.708-7.554c-.278 0-.33.04-.355.2-.09.554-.09 2.308-.09 2.985 1.49.104 1.887-.582 1.887-1.47 0-.805-.33-1.715-1.442-1.715zm0 3.62c-.132 0-.303.01-.447.027 0 2.85 0 3.324.05 3.55.055.24.173.277.69.277 1.665 0 2.006-.844 2.006-1.73 0-2.008-1.86-2.126-2.3-2.126zM112.985 72.028c2.418 0 4.36 1.875 4.36 4.28 0 2.217-1.745 4.305-4.44 4.305-2.788 0-4.44-2.06-4.44-4.37 0-2.58 2.22-4.215 4.52-4.215zm.213 8.11c.845 0 2.613-.517 2.613-2.96 0-1.715-.83-4.636-3.193-4.636-.635 0-2.604.293-2.604 2.983 0 2.18 1.045 4.612 3.185 4.612zM121.888 80.178c.568-.172.78-.265.872-.687.094-.354.122-3.383.122-4.055 0-1.72-.016-1.996-.053-2.3-.082-.593-.61-.608-.887-.62l.05-.343c.186 0 .965.01 1.123.01.175 0 .637-.025 1.086-.065.458-.04.912-.078 1.067-.078 2.166 0 3 1.213 3 2.205 0 .978-.767 1.783-1.812 2.126 1.482 2.83 2.497 4.03 3.832 4.138v.342c-1.28.028-3.13.028-5.297-4.32-.36-.01-.462-.01-.792-.052-.014.288-.027.527-.027 1.27 0 .436 0 1.756.172 2.033.172.254.7.372.884.398l-.056.315c-.42-.05-.658-.063-.87-.078-.224-.014-.422-.014-.792-.014-.543 0-.648 0-1.626.093v-.315zm3.116-7.744c-.686 0-.686.175-.725 1.018-.056 1.257-.056 1.41-.04 2.565.198.037.25.052.608.052.633 0 1.995 0 1.995-1.694 0-.473-.238-1.942-1.84-1.942zM137.848 72.028c2.417 0 4.36 1.875 4.36 4.28 0 2.217-1.743 4.305-4.44 4.305-2.786 0-4.437-2.06-4.437-4.37 0-2.58 2.22-4.215 4.518-4.215zm.21 8.11c.846 0 2.618-.517 2.618-2.96 0-1.715-.834-4.636-3.2-4.636-.632 0-2.602.293-2.602 2.983 0 2.18 1.044 4.612 3.184 4.612zM147.702 73.968c-.026-1.4-.198-1.415-.938-1.48v-.306h3.528l.077.307c-.026 0-.145.012-.208.024-1.072.174-1.137.2-1.137 3.527 0 2.3.172 2.923.7 3.343.554.45 1.27.53 1.705.53.223 0 1.875-.016 2.348-1.244.293-.767.373-2.258.373-3.897 0-2.153-.25-2.165-1.122-2.22l-.054-.372.714-.023c.197 0 .436.024.7.024h1.293v.373c-.287.015-.673.026-.777.28-.092.223-.092 1.598-.092 1.94-.014 1.148-.144 3.474-.553 4.362-.56 1.187-2.29 1.372-3.29 1.372-1.234 0-3.29-.29-3.29-2.604 0-.344.064-2.047.064-2.432l-.038-1.502zM167.557 74.14c-.184-.398-.752-1.638-2.693-1.638-1.73 0-3.25 1.255-3.25 3.7 0 2.418 1.717 3.832 3.422 3.832.582 0 1.36-.187 1.57-.6.105-.21.105-.685.105-.91 0-1.78-.037-1.78-1.45-1.78l.042-.384c.366-.016 2.004-.026 2.347-.042l.913-.04v.372c-.464.08-.504.21-.504 1.677 0 1.373.105 1.44.3 1.57v.187c-.71.146-2.638.41-3.473.41-3.67 0-4.767-2.51-4.767-4.215 0-2.948 2.68-4.252 4.968-4.252.764 0 1.24.13 1.783.274.213.04.24.014.516-.263h.225c.066 1.24.146 1.702.21 2.1h-.263zM175.194 78.022c0 .304 0 1.468.08 1.65.13.307.542.398.91.48v.3c-.344-.01-1.995-.064-2.168-.064-.343 0-.764.026-1.147.064l-.12-.3c.86-.136.896-.32.937-.584.16-1.044.21-3.566.21-4.77 0-2.167-.116-2.325-.925-2.325l.028-.343c.146-.024.306-.024.477-.024.132 0 .62 0 1.108.01.504.014 1.005.04 1.19.04h.594v.318c-.118.027-.633.12-.74.158-.146.056-.212.132-.28.62-.117.9-.144 1.4-.132 2.605.914.015 3.08.04 4.003.04.464 0 .597-.015.873-.052 0-.343.013-.715.013-1.268 0-1.888-.063-1.997-1.057-2.17l.065-.3c.184.01.385.024.647.05.28.016.61.025 1.045.025.87 0 1.242-.05 1.546-.075v.3c-.316.042-.61.095-.727.463-.17.528-.185 4.455-.185 5.3 0 1.677.092 1.9.913 1.98l-.027.302c-.334-.038-.858-.064-1.666-.064-.513 0-.988.026-1.545.064v-.3c.53-.043.73-.2.82-.504.158-.54.158-1.944.158-3.13-1.016-.055-4.69-.067-4.875-.067l-.024 1.572z"/></g></g></svg>