<?xml version="1.0" standalone="no"?>
<!DOCTYPE svg PUBLIC "-//W3C//DTD SVG 20010904//EN"
 "http://www.w3.org/TR/2001/REC-SVG-20010904/DTD/svg10.dtd">
<svg version="1.0" xmlns="http://www.w3.org/2000/svg"
 width="256.000000pt" height="256.000000pt" viewBox="0 0 256.000000 256.000000"
 preserveAspectRatio="xMidYMid meet">
<metadata>
Created by potrace 1.11, written by Peter Selinger 2001-2013
</metadata>
<g transform="translate(0.000000,256.000000) scale(0.100000,-0.100000)"
fill="#000000" stroke="none">
<path d="M1237 2454 c-1 -1 -33 -4 -72 -8 -309 -27 -610 -215 -798 -498 -80
-119 -150 -283 -173 -403 -4 -22 -8 -42 -9 -45 -1 -3 -5 -35 -9 -73 -55 -465
153 -911 542 -1160 86 -54 246 -121 322 -133 14 -3 47 -9 75 -15 48 -9 279
-14 293 -5 4 2 27 7 52 10 66 9 79 12 150 36 414 139 715 516 776 970 8 65 8
247 -1 305 -4 22 -9 54 -11 70 -14 89 -54 204 -109 318 -157 319 -455 549
-792 612 -62 11 -228 25 -236 19z m-12 -376 l0 -263 -55 1 c-70 1 -186 14
-260 29 -8 2 -21 4 -27 4 -21 1 -15 21 27 104 74 147 179 273 283 340 21 14
26 22 18 31 -11 13 -4 29 8 21 4 -2 7 -122 6 -267z m360 219 c130 -43 259
-121 361 -216 l56 -53 -38 -39 c-36 -36 -178 -120 -186 -109 -2 3 -23 46 -47
95 -57 119 -119 212 -196 290 -69 72 -69 72 50 32z m-593 -41 c-74 -80 -150
-195 -193 -292 -18 -41 -38 -74 -45 -74 -31 0 -214 94 -214 110 0 12 91 100
150 145 73 57 186 118 276 150 38 13 73 24 78 25 4 0 -19 -29 -52 -64z m384
12 c55 -41 106 -93 155 -159 54 -73 143 -244 135 -258 -3 -5 -26 -12 -52 -16
-25 -3 -56 -8 -67 -11 -12 -2 -65 -7 -117 -10 l-96 -7 0 242 c0 132 3 241 7
241 3 0 19 -10 35 -22z m730 -375 c101 -155 167 -344 179 -518 l3 -44 -209 1
-209 0 -1 26 c-1 15 -2 38 -3 52 -12 115 -20 176 -32 240 -9 41 -17 87 -20
101 -4 22 1 28 48 49 63 29 155 89 182 119 11 11 22 21 25 21 4 0 20 -21 37
-47z m-1490 -63 c34 -16 74 -32 89 -36 23 -6 26 -11 21 -33 -39 -181 -43 -206
-52 -331 -3 -41 -7 -80 -9 -87 -3 -8 -59 -12 -200 -12 l-196 -1 6 48 c13 118
23 163 56 262 22 67 74 177 115 242 l24 38 42 -30 c22 -16 69 -43 104 -60z
m293 -91 c59 -13 90 -17 201 -24 52 -4 100 -8 106 -10 7 -2 10 -63 10 -187
l-1 -183 -225 0 -225 0 1 40 c2 106 26 282 50 358 6 19 21 21 83 6z m816 -75
c22 -107 24 -123 31 -208 3 -44 7 -90 9 -102 l2 -22 -216 1 -216 2 0 184 0
184 40 3 c167 11 246 20 292 33 15 5 31 5 36 2 4 -4 14 -39 22 -77z m-1054
-456 c3 -82 18 -194 40 -301 21 -101 20 -127 -4 -127 -18 0 -149 -67 -202
-103 -47 -32 -43 -36 -109 93 -70 135 -102 244 -121 413 l-5 47 200 0 200 0 1
-22z m555 -150 c0 -163 0 -168 -20 -169 -12 0 -28 -2 -36 -3 -8 -2 -44 -6 -80
-10 -76 -7 -102 -12 -189 -32 -35 -8 -65 -13 -67 -12 -1 2 -11 50 -22 108 -25
132 -40 255 -33 285 1 3 101 4 224 3 l222 -3 1 -167z m530 93 c-7 -84 -10
-106 -27 -187 -5 -28 -12 -64 -15 -80 -8 -45 -17 -48 -86 -31 -35 9 -92 19
-128 23 -36 4 -72 8 -80 10 -8 1 -31 3 -51 3 l-35 1 1 163 c1 89 3 165 4 170
0 4 96 7 212 7 l211 0 -6 -79z m529 22 c-10 -84 -31 -182 -56 -254 -26 -76
-100 -223 -131 -261 l-23 -28 -35 31 c-36 32 -135 92 -203 123 -29 13 -37 22
-32 37 3 10 7 28 10 38 13 46 33 162 41 246 8 77 11 106 13 118 0 4 96 7 211
7 l211 0 -6 -57z m-1060 -664 c1 -148 -2 -269 -5 -269 -34 0 -202 158 -233
219 -8 14 -26 48 -41 74 -27 47 -76 168 -76 187 0 10 50 25 115 36 22 3 43 8
46 10 4 2 44 7 90 10 46 4 86 8 88 10 13 12 16 -33 16 -277z m230 266 c33 -3
95 -13 137 -22 90 -18 88 -13 37 -136 -60 -147 -181 -307 -265 -350 l-30 -15
0 256 c1 141 5 263 9 270 5 6 18 10 30 8 12 -3 49 -8 82 -11z m-666 -147 c52
-135 128 -266 200 -341 l36 -38 -30 6 c-55 13 -229 101 -290 147 -78 59 -176
158 -169 170 11 17 198 116 224 118 3 0 16 -28 29 -62z m1070 27 c36 -19 86
-52 110 -73 l45 -38 -35 -33 c-77 -75 -141 -124 -216 -167 -80 -45 -228 -107
-244 -102 -5 2 7 21 27 42 74 81 172 249 204 351 22 68 18 68 109 20z"/>
</g>
</svg>
